<?xml version="1.0" encoding="UTF-8"?>
<!-- Generator: Adobe Illustrator 27.5.0, SVG Export Plug-In . SVG Version: 6.00 Build 0)  -->
<svg version="1.1" xmlns="http://www.w3.org/2000/svg" xmlns:xlink="http://www.w3.org/1999/xlink" x="0px" y="0px" viewBox="0 0 2475 1650" style="enable-background:new 0 0 2475 1650;" xml:space="preserve">
<g id="Background">
	<rect style="fill:#FFFFFF;" width="2475" height="1650"/>
</g>
<g id="Illustration">
	<g>
		
			<linearGradient id="SVGID_1_" gradientUnits="userSpaceOnUse" x1="70.2421" y1="1758.6687" x2="2101.4546" y2="283.6213" gradientTransform="matrix(1.1056 -0.0136 0.0136 1.1011 -108.799 -188.6964)">
			<stop offset="0" style="stop-color:#B37CFF"/>
			<stop offset="1" style="stop-color:#F895E7"/>
		</linearGradient>
		<path style="opacity:0.26;fill:url(#SVGID_1_);" d="M2315.605,755.104c23.382-86.487-8.241-186.022-80.255-242.412    c-24.27-19.005-52.327-33.375-74.936-54.221c-54.138-49.917-36.421-118.627-79.201-171.393    c-139.764-172.381-352.087-190.165-532.268-115.209c-140.902,58.616-290.868,68.053-443.486,43.531    c-115.855-18.615-227.975-57.904-344.929-68.225c-92.008-8.119-191.799,1.635-258.408,69.572    c-29.935,30.531-55.586,65.85-91.519,89.507c-43.207,28.446-97.729,37.579-140.03,67.282    c-52.875,37.128-79.167,102.496-80.557,165.816c-1.389,63.321,19.16,125.195,44.666,183.469    c22.789,52.068,50.233,104.518,50.944,161.103c0.997,79.339-49.989,148.916-89.872,218.199    c-50.003,86.863-62.697,164.454-9.891,249.928c44.532,72.08,100.452,123.36,190.105,135.933    c187.382,26.279,358.991-42.449,542.964-62.018c164.231-17.469,328.072,12.163,489.608,37.679    c190.104,30.028,442.753,58.602,612.236-55.171c59.595-40.006,104.061-100.792,123.33-168.592    c15.885-55.894,14.937-114.889,24.776-172.076c10.203-59.302,32.167-116.683,64.334-168.073    c24.282-38.793,54.45-74.474,72.528-116.336C2309.724,774.179,2313.005,764.722,2315.605,755.104z"/>
		
			<linearGradient id="SVGID_00000076569107281785420210000013723244856644311428_" gradientUnits="userSpaceOnUse" x1="2157.5522" y1="321.1142" x2="599.6926" y2="1472.9359" gradientTransform="matrix(1.1056 -0.0136 0.0136 1.1011 -108.799 -188.6964)">
			<stop offset="0" style="stop-color:#B37CFF"/>
			<stop offset="1" style="stop-color:#F895E7"/>
		</linearGradient>
		<path style="opacity:0.2;fill:url(#SVGID_00000076569107281785420210000013723244856644311428_);" d="M2146.365,796.356    c11.843-39.931,32.443-76.587,38.046-118.449c10.256-76.637,17.855-163.021-32.525-222.806    c-29.755-35.309-75.679-54.829-121.998-62.568c-46.318-7.739-93.728-4.905-140.681-2.728c-26.832,1.244-54.89,2.04-79.182-9.075    c-47.895-21.914-63.238-79.792-96.813-119.537c-57.294-67.823-163.519-75.526-250.321-51.03    c-123.417,34.83-259.729,99.838-365.798,169.151c-23.116,15.106-46.525,31.092-73.58,37.545    c-21.244,5.067-43.492,3.926-65.271,1.994c-55.169-4.894-109.875-14.671-163.216-29.17    c-64.615-17.563-127.814-42.154-194.557-48.926s-140.31,7.596-185.005,56.237c-35.965,39.14-47.766,94.432-46.291,146.845    c1.475,52.413,14.694,103.746,22.534,155.618c13.451,88.986,25.547,204.458-27.652,282.133    c-44.963,65.649-100.445,125.783-116.012,205.716c-38.626,198.337,173.23,275.743,338.48,250.819    c63.781-9.62,124.733-31.985,187.584-46.267c221.621-50.359,448.516,1.76,667.348,40.142    c142.75,25.037,295.37,53.926,440.477,43.813c68.696-4.788,139.038-13.013,200.019-44.129    c66.17-33.764,117.307-94.292,138.465-163.894c31.155-102.488-23.335-195.407-57.449-289.336    c-17.401-47.91-30.291-97.532-23.831-148.708C2140.584,818.261,2143.153,807.188,2146.365,796.356z"/>
	</g>
	<g style="opacity:0.9;">
		
			<linearGradient id="SVGID_00000066517796681828966320000017481545487718244797_" gradientUnits="userSpaceOnUse" x1="4037.8877" y1="-2020.9789" x2="4699.6982" y2="-2020.9789" gradientTransform="matrix(0.501 -1.2139 0.8977 0.3705 340.1015 6750.082)">
			<stop offset="0" style="stop-color:#B37CFF"/>
			<stop offset="1" style="stop-color:#F895E7"/>
		</linearGradient>
		<path style="fill:url(#SVGID_00000066517796681828966320000017481545487718244797_);" d="M497.699,155.357    c-27.125,141.131-158.58,963.323,431.923,1090.959c0,0,197.188-543.257-415.802-1100.808    C508.457,140.63,499.471,146.137,497.699,155.357z"/>
		<path style="opacity:0.45;fill:#FFFFFF;" d="M545.641,270.473c5.832,40.341,12.398,80.61,19.278,120.803    c6.898,40.196,14.207,80.32,21.929,120.363c15.409,80.092,32.551,159.849,51.779,239.089    c9.718,39.593,19.938,79.059,30.865,118.325c11.062,39.226,22.811,78.25,35.515,116.953    c12.871,38.643,26.784,76.934,42.301,114.539c15.571,37.558,32.683,74.549,53.181,109.539c1.113,1.891,0.482,4.326-1.41,5.439    c-1.891,1.112-4.326,0.481-5.439-1.41l-0.013-0.023c-20.6-35.549-37.649-72.888-53.136-110.737    c-15.428-37.892-29.214-76.398-41.944-115.225c-12.562-38.882-24.156-78.055-35.056-117.411    c-10.764-39.394-20.816-78.97-30.361-118.663c-18.883-79.436-35.666-159.347-50.713-239.572    c-7.54-40.11-14.666-80.296-21.381-120.55c-6.697-40.261-13.075-80.56-18.729-121c-0.129-0.92,0.513-1.771,1.434-1.9    c0.92-0.129,1.771,0.513,1.9,1.434L545.641,270.473z"/>
	</g>
	<g>
		
			<linearGradient id="SVGID_00000157293102400191424360000003704385299674678183_" gradientUnits="userSpaceOnUse" x1="9124.7373" y1="141.0651" x2="9534.8027" y2="141.0651" gradientTransform="matrix(-0.9751 0.2222 0.2222 0.9751 9628.5342 -1131.495)">
			<stop offset="0" style="stop-color:#CB236D"/>
			<stop offset="1" style="stop-color:#4C246D"/>
		</linearGradient>
		<path style="fill:url(#SVGID_00000157293102400191424360000003704385299674678183_);" d="M295.358,680.083    c-0.178-7.635,10.02-10.44,13.742-3.772c35.989,64.468,135.652,230.558,245.528,305.013    c178.904,121.229,333.676,350.671,274.295,503.01C828.923,1484.334,314.768,1511.949,295.358,680.083z"/>
		<path style="opacity:0.43;fill:#FFFFFF;" d="M335.489,774.799c0.604,1.568,1.487,3.556,2.272,5.383l2.493,5.565l5.115,11.087    l10.442,22.088c7.076,14.673,14.335,29.258,21.725,43.774c14.724,29.06,29.928,57.874,45.723,86.356    c31.721,56.88,64.863,112.983,100.99,167.129c18.179,26.983,36.442,53.918,55.826,80.042    c19.379,26.118,39.37,51.786,60.328,76.643c41.729,49.849,87.227,96.633,137.609,137.907c0.687,0.552,0.797,1.557,0.245,2.245    c-0.536,0.667-1.514,0.778-2.198,0.28c-26.228-19.547-50.959-41.058-74.737-63.548c-23.597-22.695-45.846-46.733-67.442-71.322    c-42.62-49.684-81.692-102.327-117.678-156.924c-18.044-27.273-35.18-55.122-51.912-83.196    c-16.714-28.087-32.82-56.533-48.08-85.427c-15.307-28.865-30.196-57.95-44.256-87.435c-6.997-14.759-13.857-29.581-20.533-44.487    c-3.311-7.465-6.625-14.929-9.817-22.449l-4.709-11.318L334.6,781.5c-0.738-1.955-1.494-3.705-2.224-5.992    c-0.266-0.832,0.193-1.721,1.025-1.987c0.801-0.255,1.655,0.16,1.954,0.933L335.489,774.799z"/>
	</g>
	<g>
		<g>
			<g>
				
					<linearGradient id="SVGID_00000104665916292694240950000011161204175877862049_" gradientUnits="userSpaceOnUse" x1="9985.2744" y1="1307.8787" x2="9665.7676" y2="1514.9987" gradientTransform="matrix(-1 0 0 1 10626.3076 0)">
					<stop offset="0" style="stop-color:#53D8FF"/>
					<stop offset="1" style="stop-color:#3840F7"/>
				</linearGradient>
				<path style="fill:url(#SVGID_00000104665916292694240950000011161204175877862049_);" d="M511.882,1366.462l355.045,0v-54.454      l-355.045,0C519.482,1312.009,519.482,1366.462,511.882,1366.462z"/>
				
					<linearGradient id="SVGID_00000168114089724561697920000001018262242229804929_" gradientUnits="userSpaceOnUse" x1="467.681" y1="1339.2355" x2="647.5123" y2="1339.2355">
					<stop offset="0" style="stop-color:#53D8FF"/>
					<stop offset="1" style="stop-color:#3840F7"/>
				</linearGradient>
				<path style="fill:url(#SVGID_00000168114089724561697920000001018262242229804929_);" d="M866.927,1352.836v-24.921      c0-8.785-7.016-15.907-15.671-15.907H513.38c-6.806,0-12.324-4.228-12.324-9.444c0-1.585,1.676-2.869,3.744-2.869h369.273      c8.469,0,21.914,10.203,21.914,22.789v34.805c0,11.867-13.053,21.486-21.038,21.486H506.742c-3.141,0-5.687-1.951-5.687-4.358      c0-4.393,4.648-7.955,10.381-7.955h342.066C860.917,1366.462,866.927,1360.362,866.927,1352.836z"/>
			</g>
			<path style="fill:#FFFFFF;" d="M857.081,1324.182H524.178c-0.552,0-1-0.447-1-1s0.448-1,1-1h332.903c0.552,0,1,0.447,1,1     S857.633,1324.182,857.081,1324.182z"/>
			<path style="fill:#FFFFFF;" d="M857.081,1332.265H524.178c-0.552,0-1-0.447-1-1s0.448-1,1-1h332.903c0.552,0,1,0.447,1,1     S857.633,1332.265,857.081,1332.265z"/>
			<path style="fill:#FFFFFF;" d="M857.081,1340.347H524.178c-0.552,0-1-0.447-1-1s0.448-1,1-1h332.903c0.552,0,1,0.447,1,1     S857.633,1340.347,857.081,1340.347z"/>
			<path style="fill:#FFFFFF;" d="M857.081,1348.43H524.178c-0.552,0-1-0.447-1-1s0.448-1,1-1h332.903c0.552,0,1,0.447,1,1     S857.633,1348.43,857.081,1348.43z"/>
			<path style="fill:#FFFFFF;" d="M857.081,1356.513H524.178c-0.552,0-1-0.447-1-1s0.448-1,1-1h332.903c0.552,0,1,0.447,1,1     S857.633,1356.513,857.081,1356.513z"/>
		</g>
		<g>
			
				<linearGradient id="SVGID_00000065044115218474817360000010891646434694436243_" gradientUnits="userSpaceOnUse" x1="-5031.606" y1="1449.5548" x2="-4608.8979" y2="1416.8291" gradientTransform="matrix(-1 0 0 1 -4133.2471 0)">
				<stop offset="0" style="stop-color:#B37CFF"/>
				<stop offset="1" style="stop-color:#F895E7"/>
			</linearGradient>
			<path style="fill:url(#SVGID_00000065044115218474817360000010891646434694436243_);" d="M901.936,1384.694v18.339     c0,3.148-1.833,6.141-5.024,8.2l-3.153,2.035c-2.589,1.671-2.045,4.773,1.034,5.891l0,0c2.032,0.738,2.41,2.778,0.724,3.9     l-3.974,2.644c-2.6,1.729-2.605,4.761-0.012,6.496l2.852,1.908c2.461,1.646,2.391,4.539-0.15,6.117l-3.064,1.903     c-2.127,1.321-2.483,3.657-0.807,5.301l1.687,1.655c1.209,1.186,1.864,2.635,1.864,4.125v28.96H478.274v-99.218L901.936,1384.694     z"/>
			<path style="opacity:0.78;fill:#FFFFFF;" d="M492.672,1405.929h394.693c0.861,0,1.557-0.52,1.557-1.162     c0-0.642-0.696-1.162-1.557-1.162H492.672c-0.861,0-1.557,0.52-1.557,1.162C491.115,1405.409,491.811,1405.929,492.672,1405.929z     "/>
			<path style="opacity:0.78;fill:#FFFFFF;" d="M492.672,1423.201h385.352c0.861,0,1.557-0.52,1.557-1.162s-0.697-1.162-1.557-1.162     H492.672c-0.861,0-1.557,0.52-1.557,1.162S491.811,1423.201,492.672,1423.201z"/>
			<path style="opacity:0.78;fill:#FFFFFF;" d="M492.672,1435.914h380.561c0.861,0,1.557-0.52,1.557-1.162s-0.696-1.162-1.557-1.162     H492.672c-0.861,0-1.557,0.52-1.557,1.162S491.811,1435.914,492.672,1435.914z"/>
			
				<linearGradient id="SVGID_00000110463651615635822850000007241021136563106194_" gradientUnits="userSpaceOnUse" x1="-5050.9736" y1="1432.262" x2="-4580.1421" y2="1432.262" gradientTransform="matrix(-1 0 0 1 -4133.2471 0)">
				<stop offset="0" style="stop-color:#A737D5"/>
				<stop offset="1" style="stop-color:#EF497A"/>
			</linearGradient>
			<path style="fill:url(#SVGID_00000110463651615635822850000007241021136563106194_);" d="M470.736,1376.625h440.293     c3.354,0,6.35,1.83,6.668,4.321c0.365,2.858-2.637,5.263-6.392,5.263H503.043c-7.17,0-13.366,3.746-14.855,8.978     c-6.677,23.448-6.172,47.861,0.119,73.051c1.459,5.841,8.307,10.076,16.271,10.076h398.384c3.354,0,6.35,1.83,6.668,4.321     c0.366,2.858-2.637,5.263-6.392,5.263H473.652c-10.27,0-19.116-5.47-20.946-13.01c-7.419-30.559-8.068-59.89-0.006-87.64     c1.807-6.22,9.264-10.623,17.795-10.623H470.736z"/>
		</g>
	</g>
	<g>
		
			<linearGradient id="SVGID_00000085209966638665855410000015624310970947803796_" gradientUnits="userSpaceOnUse" x1="6528.1943" y1="2073.4331" x2="7148.0728" y2="2073.4331" gradientTransform="matrix(-0.5108 -0.8596 -0.8596 0.5108 6986.8179 5736.6118)">
			<stop offset="0" style="stop-color:#B37CFF"/>
			<stop offset="1" style="stop-color:#F895E7"/>
		</linearGradient>
		<path style="fill:url(#SVGID_00000085209966638665855410000015624310970947803796_);" d="M1896.885,460.056    c27.447,100.498,163.291,691.863-368.739,919.016c0,0-189.651-366.296,353.942-922.877    C1886.844,451.326,1895.092,453.491,1896.885,460.056z"/>
		<path style="opacity:0.45;fill:#FFFFFF;" d="M1858.852,557.558c-4.459,33.005-9.595,65.877-15.016,98.716    c-5.436,32.833-11.251,65.605-17.448,98.305c-12.392,65.4-26.248,130.536-42.104,195.21    c-15.903,64.653-33.697,128.897-54.979,192.065c-10.54,31.613-22.23,62.863-35.108,93.641    c-12.921,30.752-27.079,61.059-43.623,90.162c-0.978,1.719-3.164,2.321-4.883,1.344c-1.72-0.978-2.321-3.164-1.344-4.884    l0.009-0.016l0.008-0.014c16.497-28.675,30.711-58.681,43.711-89.18c12.959-30.527,24.761-61.579,35.426-93.028    c21.534-62.835,39.625-126.855,55.835-191.318c16.164-64.486,30.341-129.477,43.059-194.749    c6.36-32.637,12.339-65.35,17.94-98.127c5.585-32.776,10.89-65.62,15.509-98.527l0.002-0.014c0.116-0.83,0.884-1.408,1.713-1.291    C1858.387,555.968,1858.964,556.731,1858.852,557.558z"/>
	</g>
	<g>
		
			<linearGradient id="SVGID_00000063632924331952467690000012091014866903074495_" gradientUnits="userSpaceOnUse" x1="6591.4253" y1="2799.7019" x2="6835.498" y2="2799.7019" gradientTransform="matrix(0.7878 0.616 -0.616 0.7878 -1615.7115 -5245.9297)">
			<stop offset="0" style="stop-color:#A737D5"/>
			<stop offset="1" style="stop-color:#EF497A"/>
		</linearGradient>
		<path style="fill:url(#SVGID_00000063632924331952467690000012091014866903074495_);" d="M1668.541,1480.034    c0,0-13.021-119.356,91.13-255.461c96.633-126.283,336.269-420.524,380.604-571.931c1.964-6.707,11.624-6.059,12.598,0.861    c10.447,74.237,21.998,262.22-82.312,464.189C1936.048,1378.143,1668.541,1480.034,1668.541,1480.034z"/>
		<path style="opacity:0.45;fill:#FFFFFF;" d="M2114.25,791.367c0.002,16.586-2.061,33.12-5.025,49.432    c-0.36,2.043-0.679,4.095-1.072,6.132l-1.298,6.085l-2.605,12.177l-3.111,12.056c-1.074,4.009-1.981,8.072-3.3,12.009    c-9.477,31.825-21.553,62.923-36.287,92.719c-3.38,7.605-7.541,14.805-11.424,22.152l-5.901,10.983    c-1.008,1.816-1.912,3.693-3.006,5.46l-3.212,5.34l-12.855,21.365c-2.064,3.612-4.5,6.984-6.8,10.443l-6.975,10.331l-6.976,10.331    l-3.504,5.155l-3.736,4.986l-14.948,19.948c-2.516,3.302-4.93,6.699-7.529,9.924l-7.783,9.688l-15.566,19.375l-15.783,19.198    c-5.281,6.383-10.5,12.817-15.873,19.122c-10.659,12.684-21.392,25.305-32.264,37.802c-10.792,12.568-21.783,24.958-32.709,37.404    l-33.15,36.987c-22.119,24.626-44.276,49.202-65.571,74.46c-5.413,6.247-10.501,12.74-15.704,19.151    c-2.642,3.177-5.058,6.516-7.552,9.8c-2.459,3.309-5.013,6.556-7.396,9.917c-4.621,6.818-9.506,13.483-13.638,20.61l-3.236,5.266    c-0.527,0.885-1.108,1.741-1.591,2.649l-1.433,2.734l-5.739,10.946l-0.022,0.041c-0.23,0.438-0.771,0.607-1.21,0.378    c-0.422-0.222-0.594-0.735-0.4-1.164c6.874-15.153,15.354-29.516,24.679-43.269c2.325-3.442,4.816-6.762,7.217-10.15    c2.435-3.362,4.797-6.785,7.375-10.033c5.079-6.558,10.055-13.212,15.34-19.598l7.826-9.67c2.634-3.202,5.34-6.337,8.007-9.509    l8.028-9.491l8.118-9.404c10.803-12.561,21.746-24.982,32.633-37.451c21.791-24.92,43.583-49.811,65.09-74.939    c21.539-25.102,42.671-50.539,63.598-76.142l15.521-19.343l7.761-9.671c2.591-3.221,5.004-6.552,7.515-9.824l14.93-19.711    l3.733-4.928l3.499-5.094l6.969-10.209c18.938-26.992,35.553-55.547,50.65-84.833c15.216-29.25,27.823-59.855,37.881-91.271    c1.39-3.888,2.359-7.9,3.573-11.843l3.476-11.881l2.976-12.015l1.486-6.012c0.455-2.013,0.837-4.04,1.26-6.06    c0.797-4.049,1.719-8.08,2.414-12.149l1.985-12.23c1.062-8.184,2.197-16.394,2.42-24.661c-0.001-0.061,0.047-0.112,0.108-0.114    C2114.196,791.255,2114.247,791.308,2114.25,791.367z"/>
	</g>
	<g>
		
			<linearGradient id="SVGID_00000118376257299013963360000012481821413250470804_" gradientUnits="userSpaceOnUse" x1="1681.5222" y1="215.2015" x2="450.2934" y2="1832.3862">
			<stop offset="0" style="stop-color:#2B3582"/>
			<stop offset="1" style="stop-color:#150E42"/>
		</linearGradient>
		<path style="fill:url(#SVGID_00000118376257299013963360000012481821413250470804_);" d="M820.407,192.279l770.41,8.484    c42.587,0.469,75.989,37.213,75.961,83.379l-0.685,1142.018c-0.019,31.948-25.886,58.446-57.084,58.584l-825.957,3.645    c-29.143,0.129-53.049-24.246-53.049-54.171V289.687C730.003,235.461,770.473,191.729,820.407,192.279z"/>
		
			<linearGradient id="SVGID_00000031176929611337443710000005896850482775836567_" gradientUnits="userSpaceOnUse" x1="1652.4202" y1="1559.5649" x2="-186.1558" y2="-1459.0422">
			<stop offset="0" style="stop-color:#FDF53F"/>
			<stop offset="1" style="stop-color:#D93C65"/>
		</linearGradient>
		<path style="fill:url(#SVGID_00000031176929611337443710000005896850482775836567_);" d="M1526.584,301.757H879.002    c-27.158,0-48.972,22.381-48.972,48.835v942.517c0,26.454,21.814,46.963,48.972,46.963h647.582    c27.158,0,49.375-20.509,49.375-46.963V350.592C1575.959,324.138,1553.742,301.757,1526.584,301.757z"/>
	</g>
	<g>
		
			<linearGradient id="SVGID_00000163762601033047649950000000292746527731920769_" gradientUnits="userSpaceOnUse" x1="7222.5044" y1="454.4721" x2="8188.7617" y2="567.6563" gradientTransform="matrix(-0.9545 -0.2981 -0.2981 0.9545 9493.8604 2123.9192)">
			<stop offset="0" style="stop-color:#53D8FF"/>
			<stop offset="1" style="stop-color:#3840F7"/>
		</linearGradient>
		<path style="fill:url(#SVGID_00000163762601033047649950000000292746527731920769_);" d="M1549.785,135.266l-37.404,57.92    c-5.077,7.862-6.507,17.537-3.89,26.522c6.574,22.566,26.374,65.792,85.326,103.099c59.874,37.89,102.48,31.453,122.098,24.571    c7.104-2.491,13.186-7.244,17.324-13.533l40.237-61.144L1549.785,135.266z"/>
		
			<linearGradient id="SVGID_00000068639330641644767140000004442813565931284919_" gradientUnits="userSpaceOnUse" x1="8064.4873" y1="600.3412" x2="8013.1147" y2="344.593" gradientTransform="matrix(-0.9545 -0.2981 -0.2981 0.9545 9493.8604 2123.9192)">
			<stop offset="0" style="stop-color:#53D8FF"/>
			<stop offset="0.7469" style="stop-color:#3840F7"/>
		</linearGradient>
		<path style="fill:url(#SVGID_00000068639330641644767140000004442813565931284919_);" d="M1714.56,97.139l-198.998-5.89    c-10.247-0.303-16.69,10.941-11.24,19.623c26.585,42.351,86.454,140.356,104.57,192.073c1.938,5.533,7.396,9.027,13.235,8.501    l209.088-18.816c9.458-0.851,14.744-11.327,9.8-19.435c-26.072-42.756-92.825-150.268-118.377-172.881    C1720.403,98.338,1717.541,97.227,1714.56,97.139z"/>
		
			<linearGradient id="SVGID_00000022555000132045035830000004216867208192511146_" gradientUnits="userSpaceOnUse" x1="7926.8506" y1="696.1401" x2="7750.769" y2="1199.2313" gradientTransform="matrix(-0.9545 -0.2981 -0.2981 0.9545 9493.8604 2123.9192)">
			<stop offset="0" style="stop-color:#2B3582"/>
			<stop offset="1" style="stop-color:#150E42"/>
		</linearGradient>
		<path style="fill:url(#SVGID_00000022555000132045035830000004216867208192511146_);" d="M1681.077,190.433    c0,0,78.338,92.004,81.381,108.385c3.043,16.381-31.882,75.616-31.882,75.616c-1.535,58.887-17.606,118.335-53.145,140.961    c0,0-9.768-81.118,13.883-106.636c23.651-25.518,32.996-36.088,32.996-36.088s33.777-64.225,32.866-75.199    C1757.177,297.471,1671.581,191.744,1681.077,190.433z"/>
		<path style="fill:#FFFFFF;" d="M1534.885,115.911l64.799,121.628l16.2,30.407l4.05,7.602l2.025,3.784    c0.633,1.181,1.425,2.27,2.299,3.283c3.525,4.046,8.887,6.419,14.299,6.23l68.892-1.415c0.544-0.011,0.994,0.421,1.005,0.964    c0.011,0.542-0.417,0.99-0.957,1.005l-68.879,1.937c-6.098,0.26-12.267-2.385-16.324-6.983c-1.009-1.15-1.923-2.392-2.659-3.738    l-2.067-3.794l-4.107-7.571l-16.43-30.284l-65.719-121.133c-0.535-0.985-0.169-2.217,0.816-2.752s2.217-0.169,2.751,0.816    L1534.885,115.911z"/>
		<path style="fill:#FFFFFF;" d="M1713.173,405.07l-0.247,0.139l-0.297,0.189l-0.601,0.382l-1.196,0.871    c-0.795,0.592-1.545,1.28-2.323,1.914l-2.188,2.122c-0.705,0.737-1.365,1.521-2.052,2.28c-0.705,0.743-1.315,1.572-1.938,2.392    c-0.617,0.824-1.266,1.624-1.859,2.467l-1.687,2.601c-0.555,0.873-1.159,1.715-1.625,2.645l-1.491,2.733    c-0.489,0.916-1.028,1.806-1.425,2.772c-0.849,1.901-1.731,3.79-2.558,5.704l-2.154,5.887c-0.175,0.492-0.371,0.978-0.529,1.477    l-0.433,1.509l-0.867,3.021c-1.285,3.996-1.981,8.15-2.908,12.249c-0.248,1.023-0.394,2.064-0.542,3.106l-0.461,3.123    c-0.298,2.083-0.637,4.163-0.902,6.252c-0.338,4.2-0.767,8.398-1.033,12.608l-0.355,12.665l-0.001,0.038    c-0.011,0.39-0.336,0.697-0.725,0.686c-0.383-0.011-0.686-0.326-0.686-0.707l0.026-12.751c0.158-4.248,0.479-8.495,0.711-12.748    c0.212-2.118,0.5-4.231,0.747-6.349l0.385-3.176c0.123-1.059,0.244-2.119,0.468-3.164c0.83-4.187,1.432-8.428,2.635-12.545    l0.807-3.11l0.404-1.555c0.148-0.515,0.336-1.018,0.502-1.528l2.056-6.104c0.799-1.996,1.659-3.971,2.488-5.96    c0.386-1.007,0.919-1.949,1.403-2.915l1.479-2.884c0.462-0.979,1.069-1.881,1.626-2.81l1.701-2.774    c0.601-0.905,1.264-1.772,1.895-2.659c0.636-0.885,1.261-1.778,1.994-2.595c0.712-0.831,1.397-1.685,2.136-2.498l2.314-2.363    c0.842-0.73,1.639-1.496,2.524-2.194l1.347-1.033l0.727-0.49l0.369-0.246l0.44-0.26c0.964-0.57,2.209-0.251,2.779,0.713    c0.57,0.965,0.251,2.209-0.714,2.779c-0.01,0.006-0.019,0.011-0.029,0.017L1713.173,405.07z"/>
		<path style="fill:#FFFFFF;" d="M1708.29,431.176l-1.193,3.806l-1.307,4.302l-2.574,8.635l-5.08,17.303l-10.058,34.644    c-0.168,0.586-0.779,0.924-1.365,0.756c-0.576-0.165-0.912-0.764-0.763-1.341l9.168-34.899l4.637-17.439l2.356-8.716l1.204-4.36    l0.626-2.192l0.32-1.101c0.15-0.469,0.356-1.016,0.561-1.506c0.42-1.006,1.576-1.481,2.583-1.061    c0.947,0.396,1.424,1.444,1.126,2.404L1708.29,431.176z"/>
	</g>
	<g>
		<path style="fill:#FFFFFF;" d="M1761.249,1049.184c-0.814,0-1.61-0.343-2.171-0.978l-6.521-7.366    c-4.615,0.652-9.272,0.653-13.873,0.003l-6.519,7.36c-0.819,0.925-2.138,1.229-3.278,0.756l-12.111-5.019    c-1.142-0.473-1.858-1.62-1.783-2.854l0.597-9.813c-3.712-2.794-7.003-6.088-9.804-9.814l-9.821,0.595    c-1.249,0.085-2.377-0.641-2.852-1.781l-5.016-12.114c-0.473-1.142-0.169-2.459,0.758-3.278l7.366-6.521    c-0.652-4.615-0.653-9.273-0.003-13.872l-7.36-6.52c-0.924-0.818-1.229-2.136-0.757-3.277l5.019-12.111    c0.475-1.143,1.614-1.863,2.854-1.783l9.813,0.598c2.795-3.713,6.089-7.004,9.814-9.806l-0.595-9.82    c-0.076-1.232,0.641-2.38,1.784-2.852l12.111-5.015c1.144-0.472,2.46-0.168,3.279,0.757l6.521,7.366    c4.616-0.651,9.272-0.652,13.873-0.003l6.519-7.36c0.824-0.928,2.141-1.228,3.282-0.754l12.106,5.017    c1.142,0.473,1.858,1.619,1.783,2.854l-0.597,9.814c3.711,2.795,7.002,6.089,9.804,9.814l9.821-0.595    c1.24-0.079,2.381,0.643,2.853,1.783l5.015,12.112c0.473,1.144,0.168,2.461-0.758,3.279l-7.365,6.521    c0.652,4.615,0.653,9.273,0.003,13.873l7.36,6.519c0.925,0.819,1.229,2.137,0.756,3.278l-5.018,12.109    c-0.474,1.143-1.617,1.862-2.854,1.783l-9.813-0.597c-2.794,3.711-6.089,7.003-9.815,9.805l0.595,9.82    c0.074,1.234-0.644,2.381-1.785,2.853l-12.111,5.015C1761.997,1049.111,1761.621,1049.184,1761.249,1049.184z M1730.417,1045.264    h0.01H1730.417z M1754.097,1036.546l7.455,8.421l10.659-4.413l-0.68-11.226l0.896-0.645c4.044-2.903,7.561-6.416,10.453-10.442    l0.644-0.896l11.219,0.683l4.417-10.657l-8.414-7.454l0.179-1.089c0.803-4.892,0.802-9.863-0.003-14.775l-0.179-1.089l8.421-7.455    l-4.414-10.659l-11.226,0.681l-0.644-0.898c-2.903-4.044-6.417-7.56-10.443-10.453l-0.896-0.643l0.683-11.219l-10.659-4.416    l-7.452,8.413l-1.089-0.179c-4.892-0.804-9.863-0.803-14.776,0.003l-1.089,0.179l-7.454-8.421l-10.659,4.413l0.68,11.226    l-0.896,0.645c-4.043,2.902-7.56,6.416-10.453,10.443l-0.644,0.897l-11.219-0.684l-4.417,10.658l8.414,7.452l-0.179,1.09    c-0.803,4.892-0.802,9.863,0.003,14.775l0.179,1.089l-8.421,7.455l4.414,10.659l11.226-0.681l0.644,0.898    c2.903,4.045,6.416,7.561,10.442,10.453l0.897,0.644l-0.683,11.219l10.658,4.417l7.453-8.414l1.089,0.179    c4.893,0.804,9.863,0.803,14.775-0.003L1754.097,1036.546z M1760.841,937.6c0.001,0.001,0.002,0.001,0.004,0.002L1760.841,937.6z     M1739.896,1024.294c-0.119,0-0.24-0.011-0.361-0.032c-2.337-0.427-4.647-1.108-6.865-2.027    c-8.299-3.438-14.762-9.903-18.199-18.203c-3.437-8.3-3.435-17.44,0.004-25.739c3.438-8.299,9.903-14.762,18.203-18.198    c8.301-3.437,17.441-3.435,25.739,0.004c17.131,7.099,25.293,26.811,18.194,43.942c-2.334,5.632-6.143,10.519-11.016,14.129    c-0.887,0.659-2.14,0.475-2.798-0.416c-0.658-0.887-0.471-2.14,0.416-2.797c4.291-3.181,7.646-7.484,9.702-12.447    c6.254-15.094-0.937-32.461-16.03-38.716c-7.312-3.031-15.365-3.031-22.678-0.004c-7.313,3.028-13.008,8.723-16.038,16.034    c-3.03,7.312-3.031,15.365-0.003,22.678s8.722,13.008,16.034,16.038c1.957,0.81,3.993,1.411,6.052,1.787    c1.087,0.198,1.807,1.24,1.608,2.327C1741.686,1023.618,1740.844,1024.294,1739.896,1024.294z"/>
		<path style="fill:#FFFFFF;" d="M1745.6,1005.073c-2.914,0.001-5.738-0.931-8.118-2.703c-6.032-4.492-7.285-13.054-2.792-19.085    c2.176-2.923,5.359-4.822,8.965-5.35c3.601-0.522,7.199,0.382,10.122,2.557c6.031,4.492,7.284,13.054,2.792,19.086    c-2.176,2.922-5.36,4.821-8.964,5.35C1746.934,1005.025,1746.265,1005.073,1745.6,1005.073z M1745.648,981.79    c-0.47,0-0.942,0.034-1.416,0.104c-2.547,0.373-4.797,1.715-6.335,3.78c-3.174,4.263-2.289,10.313,1.974,13.488v0.001    c2.065,1.538,4.604,2.18,7.153,1.807c2.547-0.373,4.797-1.716,6.335-3.78c3.174-4.264,2.289-10.315-1.973-13.488    C1749.705,982.448,1747.708,981.79,1745.648,981.79z"/>
	</g>
	<g>
		<path style="opacity:0.37;fill:#FFFFFF;" d="M1277.225,1319.931h-143.201c-15.747,0-28.513-12.766-28.513-28.513v-143.201    c0-15.747,12.766-28.513,28.513-28.513h143.201c15.747,0,28.513,12.766,28.513,28.513v143.201    C1305.738,1307.165,1292.973,1319.931,1277.225,1319.931z"/>
		<g>
			
				<linearGradient id="SVGID_00000008120358190624429150000003926269861969412508_" gradientUnits="userSpaceOnUse" x1="1243.5288" y1="1066.1346" x2="1172.4696" y2="1277.9712">
				<stop offset="0" style="stop-color:#A737D5"/>
				<stop offset="1" style="stop-color:#EF497A"/>
			</linearGradient>
			<path style="fill:url(#SVGID_00000008120358190624429150000003926269861969412508_);" d="M1235.248,1178.328     c0,16.274-13.193,33.843-29.467,33.843s-29.467-17.569-29.467-33.843c0-16.274,13.193-27.82,29.467-27.82     S1235.248,1162.054,1235.248,1178.328z"/>
			
				<linearGradient id="SVGID_00000145050526752090702700000016172351016663516036_" gradientUnits="userSpaceOnUse" x1="1263.7275" y1="1072.9104" x2="1192.6683" y2="1284.7469">
				<stop offset="0" style="stop-color:#A737D5"/>
				<stop offset="1" style="stop-color:#EF497A"/>
			</linearGradient>
			<path style="fill:url(#SVGID_00000145050526752090702700000016172351016663516036_);" d="M1169.213,1274.828h71.933     c7.572,0,14.276-4.894,16.584-12.106l3.871-12.098c2.834-8.858-1.774-18.449-10.509-21.643     c-29.274-10.703-59.545-9.33-90.554,0.988c-8.687,2.891-13.508,12.182-11.111,21.018l2.981,10.987     C1154.467,1269.561,1161.353,1274.828,1169.213,1274.828z"/>
		</g>
	</g>
	<path style="opacity:0.53;fill:#FFFFFF;" d="M1497.43,408.539H913.637c-11.073,0-20.049-8.976-20.049-20.049v-25.979   c0-11.073,8.976-20.049,20.049-20.049h583.793c11.073,0,20.049,8.976,20.049,20.049v25.979   C1517.479,399.563,1508.503,408.539,1497.43,408.539z"/>
	
		<linearGradient id="SVGID_00000115490917777909494130000014738806732760653697_" gradientUnits="userSpaceOnUse" x1="1510.7206" y1="326.129" x2="1372.764" y2="515.0874">
		<stop offset="0" style="stop-color:#CB236D"/>
		<stop offset="1" style="stop-color:#4C246D"/>
	</linearGradient>
	<path style="fill:url(#SVGID_00000115490917777909494130000014738806732760653697_);" d="M1505.322,379.449   c2.166-17.277-9.832-33.007-26.797-35.133c-16.965-2.126-32.474,10.155-34.64,27.432c-1.132,9.028,1.61,17.629,6.901,24.092   l-31.584,24.298c-1.996,1.606-2.201,4.571-0.446,6.437l0.288,0.306c1.553,1.65,4.154,1.72,5.794,0.156l28.692-28.256   c4.577,4.314,10.477,7.263,17.152,8.099C1487.647,409.008,1503.156,396.726,1505.322,379.449z M1471.731,398.514   c-12.427-1.558-21.215-13.08-19.629-25.735c1.586-12.655,12.947-21.652,25.374-20.094c12.427,1.558,21.216,13.08,19.629,25.735   C1495.518,391.075,1484.158,400.071,1471.731,398.514z"/>
	<g>
		<path style="opacity:0.37;fill:#FFFFFF;" d="M1504.994,860.567h-143.201c-15.747,0-28.513-12.766-28.513-28.513V688.854    c0-15.747,12.766-28.513,28.513-28.513h143.201c15.747,0,28.513,12.766,28.513,28.513v143.201    C1533.507,847.802,1520.742,860.567,1504.994,860.567z"/>
		<g>
			
				<linearGradient id="SVGID_00000091017519744882297230000015768960101064080555_" gradientUnits="userSpaceOnUse" x1="1369.6481" y1="706.4798" x2="1394.4604" y2="706.4798">
				<stop offset="0" style="stop-color:#A737D5"/>
				<stop offset="1" style="stop-color:#EF497A"/>
			</linearGradient>
			<path style="fill:url(#SVGID_00000091017519744882297230000015768960101064080555_);" d="M1393.273,712.524h-22.437     c-0.653,0-1.188-0.534-1.188-1.188v-9.713c0-0.653,0.534-1.188,1.188-1.188h22.437c0.653,0,1.188,0.534,1.188,1.188v9.713     C1394.46,711.989,1393.926,712.524,1393.273,712.524z"/>
			
				<linearGradient id="SVGID_00000021107065354376020220000008546978990694802817_" gradientUnits="userSpaceOnUse" x1="1420.2271" y1="705.6845" x2="1448.5385" y2="705.6845">
				<stop offset="0" style="stop-color:#A737D5"/>
				<stop offset="1" style="stop-color:#EF497A"/>
			</linearGradient>
			<path style="fill:url(#SVGID_00000021107065354376020220000008546978990694802817_);" d="M1444.403,698.845h-19.404     l-4.772,13.679h28.311L1444.403,698.845z M1427.708,701.774h13.803l2.943,9.73h-20.14L1427.708,701.774z"/>
			
				<linearGradient id="SVGID_00000094591871895871217120000011233816746530760867_" gradientUnits="userSpaceOnUse" x1="1428.3859" y1="812.9763" x2="1436.8804" y2="703.2619">
				<stop offset="0" style="stop-color:#A737D5"/>
				<stop offset="1" style="stop-color:#EF497A"/>
			</linearGradient>
			<path style="fill:url(#SVGID_00000094591871895871217120000011233816746530760867_);" d="M1504.419,807.744h-143.572     c-0.644,0-1.167-0.522-1.167-1.167v-96.916c0-0.644,0.522-1.167,1.167-1.167h143.572c0.644,0,1.167,0.522,1.167,1.167v96.916     C1505.586,807.221,1505.063,807.744,1504.419,807.744z"/>
			<circle style="fill:#FFFFFF;" cx="1432.209" cy="758.119" r="28.417"/>
			
				<linearGradient id="SVGID_00000092433954836149007080000010337410035565541269_" gradientUnits="userSpaceOnUse" x1="1409.0933" y1="758.1191" x2="1456.173" y2="758.1191">
				<stop offset="0" style="stop-color:#A737D5"/>
				<stop offset="1" style="stop-color:#EF497A"/>
			</linearGradient>
			<circle style="fill:url(#SVGID_00000092433954836149007080000010337410035565541269_);" cx="1432.633" cy="758.119" r="23.54"/>
			<path style="fill:#FFFFFF;" d="M1387.723,722.703h-17.7c-0.206,0-0.375-0.169-0.375-0.375v-3.067     c0-0.206,0.169-0.375,0.375-0.375h17.7c0.206,0,0.375,0.169,0.375,0.375v3.067     C1388.098,722.534,1387.929,722.703,1387.723,722.703z"/>
			<path style="fill:#FFFFFF;" d="M1492.38,720.795h-17.7c-0.206,0-0.375-0.169-0.375-0.375v-3.067c0-0.206,0.169-0.375,0.375-0.375     h17.7c0.206,0,0.375,0.169,0.375,0.375v3.067C1492.755,720.626,1492.587,720.795,1492.38,720.795z"/>
		</g>
	</g>
	<g>
		<path style="opacity:0.37;fill:#FFFFFF;" d="M1036.127,1317.319H892.927c-15.747,0-28.513-12.766-28.513-28.513v-143.201    c0-15.747,12.766-28.513,28.513-28.513h143.201c15.747,0,28.513,12.766,28.513,28.513v143.201    C1064.64,1304.553,1051.875,1317.319,1036.127,1317.319z"/>
		<g>
			
				<linearGradient id="SVGID_00000057116868757372658240000009297756393094881664_" gradientUnits="userSpaceOnUse" x1="945.0515" y1="1029.7267" x2="977.2311" y2="1392.6383">
				<stop offset="0" style="stop-color:#53D8FF"/>
				<stop offset="1" style="stop-color:#3840F7"/>
			</linearGradient>
			<path style="fill:url(#SVGID_00000057116868757372658240000009297756393094881664_);" d="M914.617,1187.577     c7.571,54.922,35.61,80.659,73.568,92.257l21.914-17.613c-39.915-16.15-67.938-44.85-79.829-90.58L914.617,1187.577z"/>
			
				<linearGradient id="SVGID_00000124839817757134414210000000734735089064040064_" gradientUnits="userSpaceOnUse" x1="988.148" y1="1025.9058" x2="1020.3276" y2="1388.817">
				<stop offset="0" style="stop-color:#53D8FF"/>
				<stop offset="1" style="stop-color:#3840F7"/>
			</linearGradient>
			<path style="fill:url(#SVGID_00000124839817757134414210000000734735089064040064_);" d="M986.856,1279.414     c23.108,3.795,25.858,4.015,44.762-8.522c2.118-1.405,2.324-4.466,0.39-6.115l-33.394-28.478     c-1.305-1.113-3.312-0.664-4.019,0.898l-5.507,12.162L986.856,1279.414z"/>
			
				<linearGradient id="SVGID_00000127765220135896119880000009731616717859246512_" gradientUnits="userSpaceOnUse" x1="922.3347" y1="1031.7412" x2="954.5142" y2="1394.6525">
				<stop offset="0" style="stop-color:#53D8FF"/>
				<stop offset="1" style="stop-color:#3840F7"/>
			</linearGradient>
			<path style="fill:url(#SVGID_00000127765220135896119880000009731616717859246512_);" d="M913.828,1188.923     c-2.285-21.116-1.895-24.3,11.159-41.87c1.516-2.04,4.584-2.082,6.127-0.063l26.654,34.867c1.041,1.362,0.486,3.343-1.111,3.965     l-12.439,4.849l-27.764,0.575C915.114,1191.275,913.972,1190.255,913.828,1188.923z"/>
		</g>
	</g>
	<g>
		<path style="opacity:0.37;fill:#FFFFFF;" d="M1270.455,637.277h-143.201c-15.747,0-28.513-12.766-28.513-28.513V465.563    c0-15.747,12.766-28.513,28.513-28.513h143.201c15.747,0,28.513,12.766,28.513,28.513v143.201    C1298.968,624.511,1286.202,637.277,1270.455,637.277z"/>
		<g>
			
				<linearGradient id="SVGID_00000005268106606149800400000000145469213113496964_" gradientUnits="userSpaceOnUse" x1="1227.0033" y1="466.5968" x2="1162.0485" y2="647.159">
				<stop offset="0" style="stop-color:#53D8FF"/>
				<stop offset="1" style="stop-color:#3840F7"/>
			</linearGradient>
			<path style="fill:url(#SVGID_00000005268106606149800400000000145469213113496964_);" d="M1289.572,542.577     c-1.988,45.284-43.224,80.254-92.103,78.108c-48.879-2.146-86.892-40.595-84.904-85.879s43.224-80.254,92.103-78.108     C1253.547,458.844,1291.56,497.293,1289.572,542.577z"/>
			<ellipse style="opacity:0.16;fill:#FFFFFF;" cx="1196.274" cy="532.77" rx="69.515" ry="65.669"/>
			<g style="opacity:0.68;">
				<path style="fill:#FFFFFF;" d="M1224.057,539.088c-0.013,7.249-0.276,14.498-0.843,21.728      c-0.586,7.227-1.486,14.433-2.779,21.575c-1.326,7.131-3.007,14.224-5.547,21.057c-1.29,3.403-2.785,6.758-4.813,9.835      c-1.029,1.523-2.181,2.995-3.625,4.205c-0.721,0.601-1.513,1.139-2.39,1.532c-0.875,0.391-1.836,0.63-2.809,0.651      c-0.973,0.033-1.947-0.157-2.838-0.517c-0.894-0.356-1.71-0.864-2.447-1.447c-1.472-1.178-2.67-2.621-3.704-4.14      c-2.069-3.053-3.58-6.404-4.883-9.801c-2.574-6.821-4.262-13.913-5.601-21.041c-2.617-14.281-3.696-28.796-3.828-43.295      c0.006-7.25,0.331-14.497,0.88-21.725c0.563-7.227,1.39-14.436,2.605-21.587c1.234-7.142,2.806-14.254,5.238-21.111      c1.239-3.413,2.68-6.785,4.683-9.856c1.005-1.526,2.171-2.977,3.615-4.148c0.723-0.58,1.524-1.08,2.398-1.424      c0.871-0.35,1.82-0.524,2.761-0.481c0.941,0.032,1.871,0.252,2.727,0.627c0.857,0.376,1.642,0.887,2.364,1.464      c1.443,1.163,2.629,2.586,3.689,4.074c2.099,3.001,3.682,6.305,5.058,9.667c2.713,6.752,4.552,13.804,6.009,20.907      c1.426,7.114,2.43,14.307,3.095,21.528C1223.715,524.586,1224.026,531.836,1224.057,539.088z M1222.271,539.088      c0.019-7.203-0.239-14.408-0.829-21.586c-0.573-7.179-1.441-14.339-2.75-21.419c-1.317-7.073-3.016-14.101-5.574-20.82      c-1.297-3.344-2.801-6.629-4.797-9.594c-1.006-1.469-2.134-2.87-3.49-4.003c-1.342-1.127-2.971-1.987-4.717-2.041      c-1.748-0.069-3.411,0.741-4.748,1.86c-1.348,1.133-2.452,2.553-3.403,4.057c-1.897,3.025-3.26,6.374-4.421,9.767      c-2.279,6.818-3.713,13.905-4.808,21.018c-2.144,14.252-2.806,28.698-2.734,43.101c-0.055,14.398,0.834,28.837,3.248,43.035      c1.236,7.084,2.823,14.134,5.27,20.879c1.238,3.357,2.682,6.661,4.637,9.624c0.975,1.476,2.101,2.857,3.441,3.956      c1.331,1.085,2.947,1.868,4.631,1.805c0.834-0.03,1.658-0.244,2.427-0.599c0.769-0.357,1.482-0.852,2.139-1.415      c1.318-1.132,2.404-2.548,3.373-4.027c1.915-2.99,3.342-6.3,4.566-9.663c2.411-6.758,3.986-13.808,5.207-20.896      c1.213-7.095,2.009-14.262,2.543-21.444C1222.027,553.499,1222.273,546.293,1222.271,539.088z"/>
				<path style="fill:#FFFFFF;" d="M1260.626,539.088c-0.06,9.357-1.273,18.717-3.788,27.738      c-2.568,8.999-6.442,17.646-11.68,25.407c-5.23,7.745-11.889,14.607-19.835,19.585c-3.969,2.48-8.255,4.465-12.742,5.81      c-4.484,1.348-9.165,2.049-13.848,2.049c-9.384,0.019-18.667-2.88-26.61-7.827c-7.964-4.962-14.639-11.824-19.89-19.568      c-5.255-7.762-9.143-16.416-11.73-25.422c-1.269-4.512-2.219-9.114-2.844-13.758c-0.62-4.645-0.933-9.329-0.957-14.015      c0.029-4.686,0.346-9.37,0.971-14.013c0.63-4.643,1.586-9.242,2.86-13.752c2.599-9,6.496-17.644,11.757-25.393      c5.254-7.732,11.93-14.577,19.884-19.525c7.933-4.932,17.196-7.823,26.559-7.803c9.364-0.008,18.618,2.896,26.537,7.838      c7.94,4.957,14.597,11.808,19.831,19.54c5.245,7.747,9.124,16.386,11.709,25.377      C1259.364,520.367,1260.575,529.731,1260.626,539.088z M1258.579,539.088c-0.007-4.592-0.297-9.182-0.887-13.734      c-0.588-4.552-1.452-9.072-2.653-13.504c-2.405-8.857-6.041-17.415-11.064-25.118c-5.017-7.681-11.431-14.549-19.179-19.537      c-3.881-2.463-8.073-4.451-12.472-5.792c-4.397-1.34-8.989-2.046-13.589-2.064c-4.601,0.024-9.19,0.736-13.583,2.082      c-4.396,1.347-8.581,3.342-12.455,5.809c-7.733,4.998-14.128,11.871-19.125,19.552c-5.007,7.701-8.625,16.255-11.017,25.102      c-1.197,4.428-2.055,8.942-2.641,13.488c-0.589,4.546-0.877,9.131-0.883,13.716c0.011,4.586,0.304,9.169,0.897,13.714      c0.591,4.544,1.455,9.057,2.656,13.482c2.402,8.842,6.03,17.385,11.043,25.073c5,7.67,11.396,14.526,19.12,19.509      c3.869,2.461,8.047,4.449,12.434,5.792c4.385,1.342,8.964,2.052,13.554,2.076c4.59-0.024,9.169-0.734,13.553-2.077      c4.387-1.34,8.576-3.305,12.455-5.758c7.742-4.967,14.154-11.823,19.175-19.491c5.03-7.69,8.672-16.239,11.094-25.088      C1257.429,557.458,1258.569,548.268,1258.579,539.088z"/>
				<path style="fill:#FFFFFF;" d="M1126.99,507.219c6.155-0.116,12.309-0.165,18.464-0.249l18.464-0.141      c6.155-0.06,12.309-0.053,18.464-0.072l18.464-0.042l18.464,0.047c6.155,0.029,12.309,0.013,18.464,0.078l18.464,0.154      c6.155,0.091,12.309,0.145,18.464,0.268c0.05,0.001,0.089,0.042,0.089,0.092c-0.001,0.049-0.04,0.087-0.089,0.089      c-6.155,0.124-12.309,0.177-18.464,0.268l-18.464,0.154c-6.155,0.065-12.309,0.049-18.464,0.078l-18.464,0.047l-18.464-0.042      c-6.155-0.019-12.309-0.012-18.464-0.072l-18.464-0.141c-6.155-0.084-12.309-0.133-18.464-0.249      c-0.074-0.001-0.133-0.063-0.132-0.137C1126.859,507.279,1126.918,507.22,1126.99,507.219z"/>
				<path style="fill:#FFFFFF;" d="M1148.41,476.294c4.37-0.115,8.739-0.165,13.109-0.249l13.109-0.141      c8.739-0.094,17.478-0.105,26.218-0.115c8.739,0.009,17.478,0.03,26.218,0.127l13.109,0.154      c4.37,0.091,8.739,0.145,13.109,0.268c0.05,0.001,0.089,0.043,0.088,0.093c-0.001,0.048-0.04,0.086-0.088,0.088      c-4.37,0.124-8.739,0.177-13.109,0.269l-13.109,0.154c-8.739,0.097-17.478,0.118-26.218,0.127      c-8.739-0.01-17.478-0.021-26.218-0.115l-13.109-0.141c-4.37-0.084-8.739-0.133-13.109-0.249      c-0.074-0.002-0.133-0.064-0.131-0.138C1148.281,476.353,1148.339,476.296,1148.41,476.294z"/>
				<path style="fill:#FFFFFF;" d="M1120.574,538.144c6.689-0.115,13.379-0.165,20.068-0.249l20.068-0.141      c6.689-0.06,13.379-0.054,20.068-0.072l20.068-0.042l20.068,0.047c6.689,0.029,13.379,0.013,20.068,0.078l20.068,0.154      c6.689,0.091,13.379,0.145,20.068,0.268c0.05,0.001,0.09,0.042,0.089,0.092c-0.001,0.049-0.04,0.088-0.089,0.089      c-6.689,0.124-13.379,0.177-20.068,0.268l-20.068,0.154c-6.689,0.065-13.379,0.049-20.068,0.078l-20.068,0.047l-20.068-0.042      c-6.689-0.018-13.379-0.012-20.068-0.072l-20.068-0.141c-6.689-0.084-13.379-0.133-20.068-0.249      c-0.074-0.001-0.134-0.063-0.132-0.137C1120.443,538.204,1120.502,538.146,1120.574,538.144z"/>
				<path style="fill:#FFFFFF;" d="M1126.99,569.07c6.155-0.115,12.309-0.165,18.464-0.249l18.464-0.141      c6.155-0.06,12.309-0.053,18.464-0.072l18.464-0.042l18.464,0.047c6.155,0.029,12.309,0.013,18.464,0.078l18.464,0.154      c6.155,0.091,12.309,0.145,18.464,0.268c0.05,0.001,0.089,0.042,0.089,0.092c-0.001,0.049-0.04,0.088-0.089,0.089      c-6.155,0.124-12.309,0.177-18.464,0.268l-18.464,0.154c-6.155,0.065-12.309,0.049-18.464,0.078l-18.464,0.047l-18.464-0.042      c-6.155-0.019-12.309-0.012-18.464-0.072l-18.464-0.141c-6.155-0.084-12.309-0.133-18.464-0.249      c-0.074-0.001-0.133-0.063-0.132-0.137C1126.859,569.129,1126.918,569.071,1126.99,569.07z"/>
				<path style="fill:#FFFFFF;" d="M1255.922,600.601h-104.87c-0.26,0-0.472-0.211-0.472-0.472c0-0.261,0.211-0.472,0.472-0.472      h104.87c0.26,0,0.472,0.211,0.472,0.472C1256.394,600.39,1256.183,600.601,1255.922,600.601z"/>
			</g>
		</g>
	</g>
	<g>
		<path style="opacity:0.37;fill:#FFFFFF;" d="M1041.422,636.773H898.222c-15.747,0-28.513-12.766-28.513-28.513V465.059    c0-15.747,12.766-28.513,28.513-28.513h143.201c15.747,0,28.513,12.766,28.513,28.513V608.26    C1069.936,624.007,1057.17,636.773,1041.422,636.773z"/>
		<g>
			<g>
				<g>
					
						<linearGradient id="SVGID_00000156587740123466876390000015277457467531142063_" gradientUnits="userSpaceOnUse" x1="917.3142" y1="508.4536" x2="1023.8195" y2="508.4536">
						<stop offset="0" style="stop-color:#53D8FF"/>
						<stop offset="1" style="stop-color:#3840F7"/>
					</linearGradient>
					
						<circle style="fill:url(#SVGID_00000156587740123466876390000015277457467531142063_);" cx="970.567" cy="508.454" r="53.253"/>
					
						<linearGradient id="SVGID_00000138556412077851650350000006645202805913555077_" gradientUnits="userSpaceOnUse" x1="917.217" y1="563.6794" x2="1023.825" y2="563.6794">
						<stop offset="0" style="stop-color:#53D8FF"/>
						<stop offset="1" style="stop-color:#3840F7"/>
					</linearGradient>
					<path style="fill:url(#SVGID_00000138556412077851650350000006645202805913555077_);" d="M1023.722,505.599h-53.156h-53.253       c0,0-4.24,29.558,43.288,110.516c2.074,3.532,5.862,5.643,9.958,5.645c4.096,0.002,7.892-2.074,9.965-5.606       C1028.048,535.188,1023.722,505.599,1023.722,505.599z"/>
				</g>
				<g>
					
						<linearGradient id="SVGID_00000016773036508018491190000009575636121601313667_" gradientUnits="userSpaceOnUse" x1="950.6099" y1="437.7539" x2="1006.5078" y2="638.1873">
						<stop offset="0" style="stop-color:#53D8FF"/>
						<stop offset="1" style="stop-color:#3840F7"/>
					</linearGradient>
					<path style="fill:url(#SVGID_00000016773036508018491190000009575636121601313667_);" d="M970.543,623.488v0.3h0.016       c-4.635,0-8.962-2.55-11.291-6.518c-27.781-47.323-37.961-77.245-41.608-93.989c-1.04-3.852-1.637-7.627-1.826-11.498       c-0.322-3.96-0.076-5.628-0.047-5.804l0.14-0.852c2.146-28.606,25.953-50.868,54.638-50.868       c29.062,0,53.084,22.578,54.708,51.411c0.041,0.377,0.119,1.335,0.088,2.935l0.002,0.197c0,5.23-0.739,10.411-2.196,15.399       c-3.772,16.729-14.015,46.356-41.322,92.881C979.503,621.074,975.334,623.488,970.543,623.488z M918.768,507.994       c-0.013,0.799,0.012,1.939,0.152,3.656l0.003-0.006c0.177,3.667,0.744,7.198,1.733,10.854l0.018,0.061       c3.592,16.516,13.666,46.064,41.261,93.07c1.777,3.026,5.07,4.903,8.614,4.905l-0.006,1.543v-1.546       c3.194,0,6.846-1.896,8.637-4.948c27.133-46.227,37.262-75.605,40.977-92.11l0.028-0.096c1.384-4.719,1.777-9.624,1.777-14.576       l-0.311-0.218v-0.018c0-1.542,0.261-2.375,0.236-2.594l0.147-0.089c-1.512-27.216-24.11-48.535-51.546-48.535       c-27.383,0-50.018,21.62-51.579,49.074l-0.044,1.572H918.768z"/>
				</g>
				
					<ellipse transform="matrix(0.7071 -0.7071 0.7071 0.7071 -75.0868 835.2882)" style="opacity:0.8;fill:#FFFFFF;" cx="970.739" cy="508.282" rx="30.749" ry="30.749"/>
				<g>
					
						<linearGradient id="SVGID_00000065786292897756465260000007312126946068798105_" gradientUnits="userSpaceOnUse" x1="938.2717" y1="508.2818" x2="1003.2057" y2="508.2818">
						<stop offset="0" style="stop-color:#53D8FF"/>
						<stop offset="1" style="stop-color:#3840F7"/>
					</linearGradient>
					<path style="fill:url(#SVGID_00000065786292897756465260000007312126946068798105_);" d="M970.739,540.749       c-17.902,0-32.467-14.565-32.467-32.467c0-17.902,14.565-32.467,32.467-32.467c17.902,0,32.467,14.565,32.467,32.467       C1003.206,526.184,988.641,540.749,970.739,540.749z M970.739,479.251c-16.008,0-29.031,13.023-29.031,29.031       c0,16.008,13.023,29.031,29.031,29.031c16.008,0,29.031-13.023,29.031-29.031C999.77,492.274,986.747,479.251,970.739,479.251z       "/>
				</g>
			</g>
			<g>
				<path style="fill:#FFFFFF;" d="M941.57,476.267c-0.145,0-0.289-0.061-0.391-0.18c-0.185-0.216-0.161-0.541,0.055-0.727      c8.638-7.419,19.674-11.504,31.076-11.504c0.285,0,0.515,0.231,0.515,0.515s-0.231,0.515-0.515,0.515      c-11.155,0-21.953,3.997-30.405,11.255C941.808,476.226,941.689,476.267,941.57,476.267z"/>
			</g>
			<g>
				<path style="fill:#FFFFFF;" d="M925.104,512.093c-0.285,0-0.515-0.231-0.515-0.515c0-8.904,2.469-17.591,7.139-25.12      c0.15-0.242,0.468-0.316,0.71-0.166c0.242,0.15,0.316,0.468,0.166,0.71c-4.569,7.366-6.984,15.865-6.984,24.577      C925.62,511.863,925.389,512.093,925.104,512.093z"/>
			</g>
		</g>
	</g>
	<g>
		<g>
			<g>
				
					<linearGradient id="SVGID_00000043436053241363135200000009552989525761972613_" gradientUnits="userSpaceOnUse" x1="9001.3691" y1="1270.8643" x2="8550.5195" y2="1563.1276" gradientTransform="matrix(-1 0 0 1 10626.3076 0)">
					<stop offset="0" style="stop-color:#53D8FF"/>
					<stop offset="1" style="stop-color:#3840F7"/>
				</linearGradient>
				<path style="fill:url(#SVGID_00000043436053241363135200000009552989525761972613_);" d="M1444.024,1355.58l498.341,0.001      v-80.938l-498.341,0.001C1454.691,1274.643,1454.691,1355.58,1444.024,1355.58z"/>
				
					<linearGradient id="SVGID_00000137851917828699506060000012690301377470484916_" gradientUnits="userSpaceOnUse" x1="1895.9897" y1="1115.5422" x2="1311.9366" y2="1702.5754">
					<stop offset="0" style="stop-color:#CB236D"/>
					<stop offset="1" style="stop-color:#4C246D"/>
				</linearGradient>
				<path style="fill:url(#SVGID_00000137851917828699506060000012690301377470484916_);" d="M1942.365,1335.326v-37.041      c0-13.057-9.848-23.642-21.996-23.642h-474.243c-9.553,0-17.298-6.284-17.298-14.037c0-2.355,2.353-4.265,5.256-4.265h518.311      c11.886,0,30.758,15.165,30.758,33.872v51.732c0,17.638-18.321,31.936-29.528,31.936H1436.81c-4.409,0-7.982-2.9-7.982-6.477      c0-6.53,6.524-11.824,14.571-11.824h480.124C1933.929,1355.58,1942.365,1346.512,1942.365,1335.326z"/>
			</g>
			<path style="fill:#FFFFFF;" d="M1928.544,1292.25h-467.263c-0.552,0-1-0.447-1-1s0.448-1,1-1h467.263c0.552,0,1,0.447,1,1     S1929.097,1292.25,1928.544,1292.25z"/>
			<path style="fill:#FFFFFF;" d="M1928.544,1304.264h-467.263c-0.552,0-1-0.447-1-1s0.448-1,1-1h467.263c0.552,0,1,0.447,1,1     S1929.097,1304.264,1928.544,1304.264z"/>
			<path style="fill:#FFFFFF;" d="M1928.544,1316.277h-467.263c-0.552,0-1-0.447-1-1s0.448-1,1-1h467.263c0.552,0,1,0.447,1,1     S1929.097,1316.277,1928.544,1316.277z"/>
			<path style="fill:#FFFFFF;" d="M1928.544,1328.291h-467.263c-0.552,0-1-0.447-1-1s0.448-1,1-1h467.263c0.552,0,1,0.447,1,1     S1929.097,1328.291,1928.544,1328.291z"/>
			<path style="fill:#FFFFFF;" d="M1928.544,1340.305h-467.263c-0.552,0-1-0.447-1-1s0.448-1,1-1h467.263c0.552,0,1,0.447,1,1     S1929.097,1340.305,1928.544,1340.305z"/>
		</g>
		<g>
			
				<linearGradient id="SVGID_00000065041435781434739840000000207601895484625832_" gradientUnits="userSpaceOnUse" x1="1633.7876" y1="1305.8254" x2="1619.3009" y2="1546.3033">
				<stop offset="0" style="stop-color:#53D8FF"/>
				<stop offset="1" style="stop-color:#3840F7"/>
			</linearGradient>
			<path style="fill:url(#SVGID_00000065041435781434739840000000207601895484625832_);" d="M1936.824,1508.257h-622.315     c-11.814,0-21.391-9.577-21.391-21.391v-92.457c0-11.814,9.577-21.391,21.391-21.391h622.315     c11.814,0,21.391,9.577,21.391,21.391v92.457C1958.215,1498.68,1948.638,1508.257,1936.824,1508.257z"/>
			
				<linearGradient id="SVGID_00000175299855575492157790000006140906057739391904_" gradientUnits="userSpaceOnUse" x1="1326.514" y1="1341.6232" x2="1582.0717" y2="1654.6509">
				<stop offset="0" style="stop-color:#53D8FF"/>
				<stop offset="1" style="stop-color:#3840F7"/>
			</linearGradient>
			<path style="fill:url(#SVGID_00000175299855575492157790000006140906057739391904_);" d="M1439.176,1492.715h-63.651     c-4,0-7.242-3.242-7.242-7.242v-89.67c0-4,3.242-7.242,7.242-7.242h63.65c4,0,7.242,3.242,7.242,7.242v89.669     C1446.417,1489.472,1443.175,1492.715,1439.176,1492.715z"/>
			
				<linearGradient id="SVGID_00000078003644068467645040000011706205608599031434_" gradientUnits="userSpaceOnUse" x1="1371.7238" y1="1317.1156" x2="1618.9" y2="1619.8772">
				<stop offset="0" style="stop-color:#53D8FF"/>
				<stop offset="1" style="stop-color:#3840F7"/>
			</linearGradient>
			<path style="fill:url(#SVGID_00000078003644068467645040000011706205608599031434_);" d="M1481.336,1492.715H1463.8     c-3.253,0-5.89-2.637-5.89-5.89v-92.373c0-3.253,2.637-5.89,5.89-5.89h17.536c3.253,0,5.89,2.637,5.89,5.89v92.373     C1487.226,1490.078,1484.589,1492.715,1481.336,1492.715z"/>
		</g>
	</g>
	<g>
		<g>
			<path style="opacity:0.53;fill:#FFFFFF;" d="M1245.628,878.163H1080.18c-15.747,0-28.513-12.766-28.513-28.513V684.202     c0-15.747,12.766-28.513,28.513-28.513h165.448c15.747,0,28.513,12.766,28.513,28.513V849.65     C1274.141,865.397,1261.375,878.163,1245.628,878.163z"/>
			<g>
				<g style="opacity:0.64;">
					<path style="fill:#FFFFFF;" d="M1209.208,829.358c-0.32,0-0.634-0.153-0.828-0.437c-0.311-0.457-0.193-1.079,0.264-1.39       c0.68-0.464,1.352-0.938,2.015-1.422c0.447-0.325,1.072-0.226,1.397,0.218c0.326,0.446,0.228,1.071-0.218,1.397       c-0.68,0.497-1.37,0.983-2.068,1.459C1209.597,829.302,1209.401,829.358,1209.208,829.358z"/>
					<path style="fill:#FFFFFF;" d="M1166.271,842.581c-1.26,0-2.54-0.031-3.804-0.094c-0.552-0.027-0.977-0.497-0.95-1.048       c0.028-0.552,0.497-1.005,1.048-0.95c1.622,0.079,3.255,0.106,4.875,0.083c0.005,0,0.01,0,0.015,0c0.545,0,0.991,0.438,1,0.985       c0.008,0.552-0.433,1.006-0.985,1.015C1167.07,842.578,1166.671,842.581,1166.271,842.581z M1172.383,842.333       c-0.516,0-0.954-0.396-0.996-0.92c-0.044-0.55,0.366-1.032,0.916-1.077c1.608-0.13,3.236-0.314,4.838-0.55       c0.544-0.087,1.054,0.298,1.134,0.844c0.081,0.547-0.297,1.055-0.844,1.135c-1.644,0.241-3.315,0.432-4.967,0.565       C1172.438,842.332,1172.41,842.333,1172.383,842.333z M1157.598,842.081c-0.039,0-0.077-0.002-0.116-0.007       c-1.656-0.191-3.321-0.439-4.947-0.736c-0.543-0.099-0.903-0.62-0.804-1.163c0.1-0.543,0.625-0.91,1.164-0.804       c1.583,0.289,3.204,0.53,4.817,0.717c0.549,0.064,0.942,0.56,0.878,1.108C1158.531,841.705,1158.098,842.081,1157.598,842.081z        M1182.142,840.901c-0.462,0-0.877-0.321-0.977-0.791c-0.115-0.541,0.229-1.072,0.77-1.187       c1.572-0.336,3.163-0.729,4.728-1.169c0.53-0.153,1.083,0.16,1.233,0.692c0.149,0.531-0.161,1.084-0.692,1.233       c-1.606,0.451-3.239,0.854-4.852,1.198C1182.281,840.894,1182.21,840.901,1182.142,840.901z M1147.891,840.313       c-0.081,0-0.162-0.01-0.244-0.03c-1.612-0.403-3.23-0.864-4.808-1.37c-0.526-0.168-0.815-0.732-0.647-1.257       c0.168-0.525,0.73-0.812,1.257-0.648c1.537,0.492,3.112,0.941,4.684,1.335c0.536,0.134,0.861,0.677,0.727,1.213       C1148.747,840.011,1148.339,840.313,1147.891,840.313z M1191.637,838.231c-0.413,0-0.798-0.257-0.943-0.668       c-0.183-0.52,0.09-1.092,0.611-1.275c1.532-0.539,3.06-1.133,4.541-1.763c0.505-0.216,1.096,0.02,1.312,0.528       c0.216,0.508-0.02,1.096-0.528,1.311c-1.52,0.648-3.087,1.256-4.66,1.81C1191.859,838.213,1191.748,838.231,1191.637,838.231z        M1138.496,837.306c-0.122,0-0.246-0.023-0.366-0.069c-1.541-0.606-3.085-1.272-4.59-1.978c-0.5-0.234-0.715-0.83-0.48-1.33       c0.234-0.501,0.831-0.716,1.33-0.481c1.466,0.688,2.971,1.336,4.473,1.927c0.514,0.202,0.767,0.783,0.564,1.297       C1139.272,837.065,1138.895,837.306,1138.496,837.306z M1200.713,834.366c-0.366,0-0.717-0.2-0.894-0.549       c-0.249-0.493-0.051-1.095,0.441-1.344c1.447-0.73,2.884-1.517,4.272-2.334c0.478-0.278,1.09-0.122,1.37,0.354       c0.28,0.476,0.122,1.089-0.354,1.369c-1.426,0.84-2.901,1.646-4.386,2.396C1201.019,834.332,1200.864,834.366,1200.713,834.366       z M1129.568,833.113c-0.163,0-0.328-0.04-0.481-0.124c-1.452-0.8-2.898-1.657-4.298-2.551       c-0.465-0.297-0.602-0.915-0.305-1.381c0.298-0.464,0.915-0.602,1.381-0.305c1.363,0.87,2.772,1.706,4.187,2.484       c0.484,0.267,0.66,0.874,0.394,1.358C1130.263,832.927,1129.921,833.113,1129.568,833.113z M1121.254,827.81       c-0.205,0-0.412-0.063-0.59-0.193c-1.335-0.978-2.659-2.015-3.934-3.082c-0.424-0.354-0.48-0.984-0.125-1.408       c0.354-0.424,0.986-0.482,1.409-0.125c1.242,1.039,2.531,2.049,3.832,3.002c0.446,0.326,0.542,0.952,0.216,1.397       C1121.866,827.668,1121.563,827.81,1121.254,827.81z M1113.695,821.482c-0.248,0-0.496-0.092-0.69-0.276       c-1.198-1.142-2.376-2.341-3.502-3.563c-0.375-0.406-0.348-1.039,0.058-1.413c0.406-0.374,1.04-0.348,1.413,0.058       c1.097,1.19,2.245,2.358,3.411,3.471c0.4,0.381,0.415,1.014,0.034,1.413C1114.223,821.379,1113.959,821.482,1113.695,821.482z        M1107.019,814.233c-0.292,0-0.581-0.127-0.778-0.372c-1.042-1.289-2.054-2.63-3.01-3.985c-0.318-0.451-0.21-1.075,0.241-1.394       c0.451-0.316,1.075-0.211,1.394,0.241c0.931,1.319,1.917,2.626,2.931,3.882c0.347,0.43,0.28,1.059-0.149,1.406       C1107.462,814.161,1107.24,814.233,1107.019,814.233z M1101.342,806.183c-0.337,0-0.666-0.17-0.854-0.479       c-0.866-1.415-1.696-2.878-2.467-4.347c-0.256-0.489-0.068-1.094,0.421-1.351c0.49-0.255,1.093-0.068,1.351,0.421       c0.75,1.431,1.558,2.855,2.402,4.233c0.288,0.471,0.14,1.086-0.331,1.374C1101.7,806.136,1101.52,806.183,1101.342,806.183z        M1096.757,797.453c-0.383,0-0.749-0.221-0.914-0.594c-0.673-1.514-1.307-3.071-1.883-4.629       c-0.191-0.518,0.073-1.093,0.591-1.284c0.519-0.193,1.093,0.074,1.285,0.591c0.561,1.518,1.178,3.035,1.834,4.51       c0.225,0.505-0.002,1.096-0.507,1.32C1097.031,797.426,1096.893,797.453,1096.757,797.453z M1093.336,788.205       c-0.431,0-0.828-0.28-0.958-0.714c-0.102-0.344-0.203-0.688-0.301-1.033c-0.355-1.254-0.684-2.531-0.976-3.799       c-0.124-0.538,0.212-1.075,0.75-1.199c0.537-0.126,1.075,0.211,1.199,0.75c0.285,1.235,0.605,2.48,0.951,3.702       c0.096,0.337,0.194,0.673,0.294,1.007c0.158,0.529-0.144,1.087-0.673,1.244       C1093.527,788.191,1093.431,788.205,1093.336,788.205z M1091.122,778.594c-0.481,0-0.905-0.349-0.985-0.839       c-0.269-1.643-0.486-3.311-0.646-4.957c-0.054-0.55,0.349-1.038,0.898-1.092c0.547-0.05,1.039,0.349,1.092,0.898       c0.156,1.604,0.368,3.227,0.629,4.828c0.089,0.545-0.28,1.059-0.825,1.148C1091.23,778.59,1091.176,778.594,1091.122,778.594z        M1090.167,768.777c-0.538,0-0.981-0.427-0.999-0.968c-0.026-0.817-0.039-1.634-0.039-2.449c0-0.852,0.014-1.702,0.042-2.551       c0.019-0.552,0.483-1,1.033-0.966c0.552,0.018,0.984,0.48,0.966,1.032c-0.027,0.827-0.042,1.654-0.042,2.484       c0,0.794,0.013,1.589,0.038,2.385c0.018,0.552-0.416,1.014-0.967,1.031C1090.188,768.777,1090.177,768.777,1090.167,768.777z        M1090.497,758.919c-0.033,0-0.066-0.002-0.1-0.005c-0.549-0.055-0.951-0.544-0.896-1.094c0.163-1.646,0.383-3.314,0.654-4.957       c0.09-0.544,0.598-0.926,1.149-0.823c0.545,0.09,0.914,0.604,0.824,1.15c-0.264,1.6-0.479,3.225-0.637,4.828       C1091.439,758.533,1091.005,758.919,1090.497,758.919z"/>
					<path style="fill:#FFFFFF;" d="M1092.115,749.144c-0.075,0-0.152-0.009-0.229-0.026c-0.538-0.125-0.872-0.663-0.746-1.201       c0.192-0.822,0.397-1.64,0.616-2.454c0.143-0.532,0.69-0.852,1.225-0.707c0.534,0.142,0.85,0.691,0.707,1.225       c-0.212,0.793-0.413,1.591-0.6,2.392C1092.98,748.833,1092.569,749.144,1092.115,749.144z"/>
				</g>
				<g style="opacity:0.64;">
					<path style="fill:#FFFFFF;" d="M1126.734,701.306c-0.338,0-0.667-0.171-0.855-0.481c-0.287-0.473-0.137-1.087,0.335-1.374       c0.72-0.438,1.449-0.864,2.186-1.279c0.481-0.27,1.091-0.1,1.362,0.382c0.271,0.482,0.1,1.091-0.381,1.362       c-0.718,0.403-1.427,0.818-2.128,1.244C1127.09,701.259,1126.911,701.306,1126.734,701.306z"/>
					<path style="fill:#FFFFFF;" d="M1240.865,782.049c-0.068,0-0.138-0.007-0.208-0.022c-0.541-0.114-0.886-0.644-0.772-1.185       c0.347-1.643,0.642-3.32,0.877-4.988c0.078-0.547,0.587-0.931,1.13-0.851c0.547,0.077,0.928,0.583,0.851,1.13       c-0.242,1.712-0.545,3.435-0.9,5.121C1241.743,781.726,1241.328,782.049,1240.865,782.049z M1242.297,771.889       c-0.024,0-0.049-0.001-0.073-0.003c-0.551-0.04-0.965-0.518-0.925-1.069c0.122-1.676,0.187-3.378,0.194-5.06       c0.002-0.551,0.45-0.996,1-0.996c0.001,0,0.003,0,0.004,0c0.552,0.002,0.998,0.452,0.996,1.004       c-0.007,1.728-0.074,3.476-0.199,5.196C1243.256,771.487,1242.817,771.889,1242.297,771.889z M1242.339,761.631       c-0.523,0-0.963-0.407-0.997-0.937c-0.107-1.677-0.273-3.373-0.493-5.041c-0.072-0.548,0.313-1.05,0.86-1.122       c0.546-0.063,1.05,0.313,1.122,0.86c0.226,1.713,0.396,3.454,0.506,5.176c0.035,0.551-0.383,1.026-0.935,1.062       C1242.382,761.63,1242.361,761.631,1242.339,761.631z M1240.997,751.458c-0.466,0-0.884-0.328-0.979-0.803       c-0.332-1.649-0.724-3.309-1.164-4.931c-0.145-0.532,0.17-1.082,0.703-1.227c0.538-0.147,1.083,0.171,1.227,0.703       c0.452,1.664,0.854,3.366,1.195,5.06c0.109,0.541-0.242,1.068-0.783,1.178C1241.128,751.452,1241.062,751.458,1240.997,751.458       z M1238.31,741.558c-0.415,0-0.803-0.261-0.946-0.675c-0.548-1.594-1.155-3.185-1.806-4.731       c-0.214-0.509,0.025-1.095,0.534-1.31c0.507-0.212,1.095,0.024,1.31,0.534c0.668,1.587,1.292,3.221,1.854,4.856       c0.179,0.522-0.098,1.091-0.621,1.271C1238.527,741.54,1238.417,741.558,1238.31,741.558z M1234.332,732.106       c-0.366,0-0.719-0.201-0.895-0.551c-0.756-1.505-1.572-3-2.426-4.445c-0.281-0.476-0.124-1.089,0.352-1.37       c0.476-0.279,1.088-0.123,1.37,0.352c0.877,1.484,1.715,3.02,2.492,4.565c0.248,0.494,0.049,1.095-0.444,1.343       C1234.636,732.071,1234.482,732.106,1234.332,732.106z M1229.117,723.278c-0.318,0-0.632-0.151-0.826-0.435       c-0.948-1.382-1.959-2.752-3.004-4.073c-0.343-0.433-0.27-1.062,0.164-1.404c0.433-0.343,1.063-0.271,1.405,0.164       c1.073,1.355,2.111,2.763,3.085,4.183c0.313,0.455,0.196,1.077-0.259,1.39C1229.509,723.222,1229.312,723.278,1229.117,723.278       z M1222.755,715.237c-0.272,0-0.543-0.11-0.741-0.328c-1.127-1.241-2.314-2.462-3.527-3.63       c-0.398-0.383-0.41-1.017-0.027-1.414c0.383-0.397,1.017-0.409,1.414-0.027c1.246,1.199,2.464,2.453,3.621,3.728       c0.372,0.408,0.341,1.041-0.068,1.412C1223.236,715.151,1222.995,715.237,1222.755,715.237z M1215.365,708.127       c-0.227,0-0.455-0.077-0.643-0.234c-1.292-1.085-2.632-2.136-3.984-3.124c-0.446-0.326-0.543-0.952-0.217-1.398       c0.326-0.446,0.951-0.544,1.397-0.218c1.388,1.016,2.764,2.095,4.089,3.208c0.423,0.355,0.478,0.985,0.123,1.409       C1215.933,708.006,1215.65,708.127,1215.365,708.127z M1207.087,702.071c-0.183,0-0.368-0.05-0.534-0.155       c-1.422-0.9-2.891-1.764-4.366-2.564c-0.485-0.264-0.666-0.871-0.402-1.357c0.264-0.484,0.871-0.666,1.356-0.401       c1.515,0.822,3.022,1.708,4.482,2.633c0.466,0.295,0.605,0.913,0.31,1.38C1207.742,701.907,1207.418,702.071,1207.087,702.071z        M1133.446,697.68c-0.373,0-0.731-0.21-0.903-0.569c-0.237-0.499-0.026-1.096,0.472-1.333c1.555-0.742,3.159-1.441,4.766-2.079       c0.516-0.201,1.095,0.049,1.298,0.561c0.204,0.514-0.047,1.095-0.561,1.299c-1.565,0.621-3.127,1.302-4.642,2.024       C1133.737,697.648,1133.59,697.68,1133.446,697.68z M1198.073,697.174c-0.14,0-0.281-0.029-0.417-0.091       c-1.53-0.702-3.102-1.361-4.672-1.959c-0.516-0.196-0.775-0.774-0.579-1.29c0.197-0.518,0.776-0.779,1.291-0.579       c1.611,0.613,3.224,1.29,4.794,2.01c0.502,0.231,0.722,0.824,0.492,1.326C1198.814,696.958,1198.452,697.174,1198.073,697.174z        M1142.982,693.896c-0.423,0-0.816-0.271-0.952-0.694c-0.169-0.526,0.121-1.089,0.647-1.258       c0.851-0.273,1.71-0.533,2.577-0.778c0.807-0.229,1.615-0.444,2.423-0.646c0.535-0.127,1.079,0.192,1.211,0.729       c0.133,0.536-0.193,1.078-0.729,1.212c-0.787,0.195-1.574,0.405-2.36,0.628c-0.844,0.239-1.682,0.493-2.511,0.759       C1143.186,693.881,1143.083,693.896,1142.982,693.896z M1188.485,693.526c-0.097,0-0.195-0.014-0.292-0.044       c-1.607-0.49-3.253-0.933-4.892-1.314c-0.538-0.125-0.873-0.662-0.748-1.2c0.125-0.539,0.665-0.879,1.201-0.747       c1.683,0.392,3.373,0.846,5.023,1.35c0.528,0.161,0.826,0.72,0.665,1.248C1189.31,693.249,1188.914,693.526,1188.485,693.526z        M1152.936,691.415c-0.475,0-0.896-0.339-0.983-0.823c-0.098-0.543,0.264-1.063,0.808-1.161       c1.703-0.306,3.435-0.557,5.147-0.746c0.545-0.063,1.042,0.336,1.104,0.885c0.061,0.549-0.335,1.043-0.885,1.104       c-1.667,0.183-3.354,0.428-5.012,0.727C1153.054,691.41,1152.995,691.415,1152.936,691.415z M1178.492,691.199       c-0.054,0-0.108-0.004-0.162-0.013c-1.658-0.271-3.349-0.487-5.025-0.643c-0.55-0.052-0.954-0.539-0.902-1.09       c0.051-0.55,0.54-0.959,1.089-0.902c1.722,0.162,3.458,0.384,5.16,0.661c0.545,0.089,0.915,0.603,0.826,1.148       C1179.398,690.851,1178.974,691.199,1178.492,691.199z M1163.133,690.286c-0.533,0-0.976-0.42-0.999-0.957       c-0.023-0.552,0.405-1.019,0.957-1.042c1.72-0.073,3.477-0.088,5.207-0.045c0.552,0.015,0.988,0.474,0.974,1.026       c-0.014,0.552-0.496,0.949-1.025,0.974c-1.685-0.044-3.395-0.028-5.07,0.043       C1163.162,690.286,1163.147,690.286,1163.133,690.286z"/>
					<path style="fill:#FFFFFF;" d="M1238.906,789.465c-0.101,0-0.203-0.015-0.304-0.047c-0.526-0.168-0.817-0.731-0.649-1.257       c0.249-0.782,0.486-1.57,0.71-2.361c0.151-0.531,0.703-0.842,1.235-0.689c0.531,0.15,0.84,0.703,0.69,1.234       c-0.23,0.813-0.474,1.62-0.729,2.424C1239.723,789.193,1239.33,789.465,1238.906,789.465z"/>
				</g>
				<g>
					
						<linearGradient id="SVGID_00000129178324618169712320000010513721451032903599_" gradientUnits="userSpaceOnUse" x1="-27.742" y1="-132.5397" x2="-83.3966" y2="22.0563" gradientTransform="matrix(0.2688 -0.9632 0.9632 0.2688 1261.8429 746.8401)">
						<stop offset="0" style="stop-color:#CB236D"/>
						<stop offset="1" style="stop-color:#4C246D"/>
					</linearGradient>
					<path style="fill:url(#SVGID_00000129178324618169712320000010513721451032903599_);" d="M1227.846,793.922       c0.233-0.388,0.194-0.88-0.096-1.227l-8.287-9.882c1.842-5.734,2.783-11.804,2.693-18.001l10.805-7.026       c0.379-0.246,0.56-0.706,0.451-1.145l-3.745-15.01c-0.11-0.439-0.485-0.76-0.935-0.799l-12.84-1.127       c-2.833-5.513-6.514-10.429-10.834-14.626l2.674-12.617c0.094-0.442-0.104-0.895-0.491-1.128l-13.262-7.965       c-0.388-0.233-0.88-0.194-1.227,0.096l-9.882,8.287c-5.734-1.842-11.804-2.783-18.001-2.693l-7.026-10.805       c-0.246-0.379-0.706-0.56-1.145-0.451l-15.01,3.745c-0.439,0.109-0.76,0.485-0.799,0.935l-1.127,12.84       c-5.513,2.833-10.429,6.514-14.626,10.834l-12.617-2.674c-0.442-0.094-0.895,0.104-1.128,0.491l-7.965,13.262       c-0.233,0.388-0.194,0.88,0.096,1.227l8.287,9.882c-1.842,5.734-2.783,11.804-2.693,18.001l-10.805,7.026       c-0.379,0.246-0.56,0.706-0.451,1.145l3.745,15.01c0.109,0.439,0.485,0.759,0.935,0.799l12.839,1.127       c2.833,5.513,6.514,10.429,10.834,14.626l-2.674,12.617c-0.094,0.442,0.104,0.895,0.491,1.128l13.262,7.965       c0.387,0.233,0.88,0.194,1.226-0.096l9.882-8.287c5.734,1.842,11.804,2.783,18.001,2.693l7.026,10.805       c0.246,0.379,0.706,0.56,1.145,0.45l15.01-3.745c0.439-0.109,0.76-0.485,0.799-0.935l1.127-12.839       c5.513-2.833,10.429-6.514,14.626-10.834l12.617,2.674c0.442,0.094,0.895-0.103,1.128-0.491L1227.846,793.922z"/>
					<path style="opacity:0.56;fill:#FFFFFF;" d="M1165.654,780.323c-1.433,0-2.873-0.212-4.284-0.638       c-3.768-1.14-6.866-3.678-8.725-7.147c-1.859-3.47-2.255-7.455-1.116-11.224c1.139-3.768,3.678-6.866,7.147-8.726       c7.163-3.838,16.111-1.131,19.948,6.031c1.859,3.471,2.255,7.456,1.116,11.224c-1.139,3.768-3.678,6.866-7.147,8.725       C1170.423,779.732,1168.05,780.323,1165.654,780.323z M1165.614,752.845c-2.028,0-4.083,0.484-5.993,1.508       c-2.999,1.607-5.193,4.285-6.177,7.541c-0.984,3.257-0.642,6.701,0.964,9.699c1.606,2.999,4.285,5.193,7.541,6.178       c3.255,0.985,6.701,0.642,9.7-0.965c2.999-1.607,5.193-4.284,6.177-7.54c0.984-3.257,0.642-6.702-0.964-9.7       C1174.569,755.284,1170.162,752.845,1165.614,752.845z"/>
					<path style="opacity:0.56;fill:#FFFFFF;" d="M1165.344,803.767c-17.179,0.002-32.849-11.649-37.192-29.054       c-0.774-3.104-1.145-6.216-1.145-9.279c0.001-17.177,11.652-32.846,29.054-37.188c20.508-5.113,41.352,7.405,46.467,27.91l0,0       c0.567,2.275,0.928,4.598,1.074,6.92c0.024,0.388,0.042,0.774,0.055,1.161c0,0.011,0,0.021,0,0.032       c0,0.538-0.427,0.982-0.968,0.999c-0.543,0.048-1.014-0.415-1.032-0.967c-0.083-2.566-0.443-5.144-1.071-7.661       c-0.002-0.009-0.004-0.016-0.006-0.024c-0.001-0.002-0.001-0.005-0.001-0.005c-0.001-0.004-0.001-0.006-0.002-0.007       c-4.436-17.705-21.24-29.114-38.906-27.315c-1.705,0.174-3.417,0.472-5.127,0.898c-16.494,4.115-27.536,18.967-27.538,35.247       c0,2.904,0.351,5.854,1.084,8.795c4.849,19.436,24.607,31.307,44.042,26.453c6.391-1.595,12.218-4.884,16.852-9.512       c0.391-0.389,1.024-0.39,1.414,0.001c0.195,0.196,0.292,0.452,0.292,0.708s-0.098,0.512-0.293,0.707       c-4.89,4.883-11.039,8.354-17.781,10.037C1171.518,803.396,1168.406,803.767,1165.344,803.767z"/>
				</g>
			</g>
		</g>
		<g>
			<g>
				
					<linearGradient id="SVGID_00000109030899736910430290000005476615676243281578_" gradientUnits="userSpaceOnUse" x1="902.3992" y1="1361.1952" x2="1002.5506" y2="1361.1952">
					<stop offset="0" style="stop-color:#9CFFFB"/>
					<stop offset="1" style="stop-color:#9BFFFA"/>
				</linearGradient>
				<path style="fill:url(#SVGID_00000109030899736910430290000005476615676243281578_);" d="M996.838,1601.164      c-2.734,0-5.148-1.76-5.619-4.248l-88.74-469.746c-0.524-2.775,1.569-5.405,4.676-5.872c3.108-0.465,6.05,1.402,6.575,4.177      l88.74,469.746c0.524,2.776-1.569,5.405-4.676,5.873C997.473,1601.141,997.153,1601.164,996.838,1601.164z"/>
				
					<linearGradient id="SVGID_00000038387917695016993340000005137154978213908377_" gradientUnits="userSpaceOnUse" x1="691.7513" y1="1364.2493" x2="807.7724" y2="1364.2493">
					<stop offset="0" style="stop-color:#9CFFFB"/>
					<stop offset="1" style="stop-color:#9BFFFA"/>
				</linearGradient>
				<path style="fill:url(#SVGID_00000038387917695016993340000005137154978213908377_);" d="M697.463,1601.166      c-0.374,0-0.753-0.033-1.133-0.103c-3.089-0.556-5.088-3.243-4.465-6.002l104.609-463.634c0.623-2.759,3.626-4.559,6.72-3.988      c3.089,0.556,5.088,3.243,4.465,6.002L703.05,1597.075C702.504,1599.494,700.123,1601.166,697.463,1601.166z"/>
				
					<linearGradient id="SVGID_00000153669950304933988480000000897457730207711928_" gradientUnits="userSpaceOnUse" x1="771.7763" y1="1238.1613" x2="934.8315" y2="1238.1613">
					<stop offset="0" style="stop-color:#9CFFFB"/>
					<stop offset="1" style="stop-color:#9BFFFA"/>
				</linearGradient>
				<path style="fill:url(#SVGID_00000153669950304933988480000000897457730207711928_);" d="M929.127,1243.257H777.481      c-3.151,0-5.705-2.281-5.705-5.096s2.554-5.096,5.705-5.096h151.645c3.15,0,5.705,2.281,5.705,5.096      S932.277,1243.257,929.127,1243.257z"/>
				
					<linearGradient id="SVGID_00000107589474730227408060000010324009618594181778_" gradientUnits="userSpaceOnUse" x1="774.7367" y1="1238.1613" x2="931.875" y2="1238.1613">
					<stop offset="0" style="stop-color:#9CFFFB"/>
					<stop offset="1" style="stop-color:#9BFFFA"/>
				</linearGradient>
				<path style="fill:url(#SVGID_00000107589474730227408060000010324009618594181778_);" d="M926.377,1243.257H780.234      c-3.036,0-5.498-2.281-5.498-5.096s2.462-5.096,5.498-5.096h146.143c3.036,0,5.498,2.281,5.498,5.096      S929.413,1243.257,926.377,1243.257z"/>
				
					<linearGradient id="SVGID_00000127008082771870037100000012126146314188358070_" gradientUnits="userSpaceOnUse" x1="771.7763" y1="1323.0979" x2="934.8315" y2="1323.0979">
					<stop offset="0" style="stop-color:#9CFFFB"/>
					<stop offset="1" style="stop-color:#9BFFFA"/>
				</linearGradient>
				<path style="fill:url(#SVGID_00000127008082771870037100000012126146314188358070_);" d="M929.127,1328.194H777.481      c-3.151,0-5.705-2.281-5.705-5.096c0-2.815,2.554-5.096,5.705-5.096h151.645c3.15,0,5.705,2.281,5.705,5.096      C934.831,1325.913,932.277,1328.194,929.127,1328.194z"/>
				
					<linearGradient id="SVGID_00000150793828015256511130000011223231066624141976_" gradientUnits="userSpaceOnUse" x1="753.342" y1="1323.0979" x2="948.6009" y2="1323.0979">
					<stop offset="0" style="stop-color:#9CFFFB"/>
					<stop offset="1" style="stop-color:#9BFFFA"/>
				</linearGradient>
				<path style="fill:url(#SVGID_00000150793828015256511130000011223231066624141976_);" d="M942.896,1328.194H759.047      c-3.15,0-5.705-2.281-5.705-5.096c0-2.815,2.554-5.096,5.705-5.096h183.849c3.15,0,5.705,2.281,5.705,5.096      C948.601,1325.913,946.047,1328.194,942.896,1328.194z"/>
				
					<linearGradient id="SVGID_00000093161343493492858080000004945562539690279865_" gradientUnits="userSpaceOnUse" x1="771.7763" y1="1408.0345" x2="934.8315" y2="1408.0345">
					<stop offset="0" style="stop-color:#9CFFFB"/>
					<stop offset="1" style="stop-color:#9BFFFA"/>
				</linearGradient>
				<path style="fill:url(#SVGID_00000093161343493492858080000004945562539690279865_);" d="M929.127,1413.131H777.481      c-3.151,0-5.705-2.281-5.705-5.096c0-2.815,2.554-5.096,5.705-5.096h151.645c3.15,0,5.705,2.281,5.705,5.096      C934.831,1410.85,932.277,1413.131,929.127,1413.131z"/>
				
					<linearGradient id="SVGID_00000027567203404115212080000011713150828527769250_" gradientUnits="userSpaceOnUse" x1="734.6853" y1="1408.0345" x2="966.1614" y2="1408.0345">
					<stop offset="0" style="stop-color:#9CFFFB"/>
					<stop offset="1" style="stop-color:#9BFFFA"/>
				</linearGradient>
				<path style="fill:url(#SVGID_00000027567203404115212080000011713150828527769250_);" d="M960.457,1413.131H740.39      c-3.151,0-5.705-2.281-5.705-5.096c0-2.815,2.554-5.096,5.705-5.096h220.066c3.15,0,5.705,2.281,5.705,5.096      C966.161,1410.85,963.607,1413.131,960.457,1413.131z"/>
				
					<linearGradient id="SVGID_00000039092916986982881070000001492079640744227470_" gradientUnits="userSpaceOnUse" x1="716.9937" y1="1492.9712" x2="934.8315" y2="1492.9712">
					<stop offset="0" style="stop-color:#9CFFFB"/>
					<stop offset="1" style="stop-color:#9BFFFA"/>
				</linearGradient>
				<path style="fill:url(#SVGID_00000039092916986982881070000001492079640744227470_);" d="M929.127,1498.067H722.699      c-3.151,0-5.705-2.281-5.705-5.096c0-2.815,2.554-5.096,5.705-5.096h206.428c3.15,0,5.705,2.281,5.705,5.096      C934.831,1495.786,932.277,1498.067,929.127,1498.067z"/>
				
					<linearGradient id="SVGID_00000110459531055767565160000012502107193010044048_" gradientUnits="userSpaceOnUse" x1="716.9937" y1="1492.9712" x2="980.3659" y2="1492.9712">
					<stop offset="0" style="stop-color:#9CFFFB"/>
					<stop offset="1" style="stop-color:#9BFFFA"/>
				</linearGradient>
				<path style="fill:url(#SVGID_00000110459531055767565160000012502107193010044048_);" d="M974.661,1498.067H722.699      c-3.151,0-5.705-2.281-5.705-5.096c0-2.815,2.554-5.096,5.705-5.096h251.962c3.15,0,5.705,2.281,5.705,5.096      C980.366,1495.786,977.812,1498.067,974.661,1498.067z"/>
			</g>
			<g>
				
					<linearGradient id="SVGID_00000098926335846135203520000002854088899944934323_" gradientUnits="userSpaceOnUse" x1="792.041" y1="1306.351" x2="833.3873" y2="1306.351">
					<stop offset="0" style="stop-color:#2B3582"/>
					<stop offset="1" style="stop-color:#150E42"/>
				</linearGradient>
				<path style="fill:url(#SVGID_00000098926335846135203520000002854088899944934323_);" d="M797.797,1291.782      c0,0-4.594,7.242-5.75,27.518c-0.108,1.889,1.389,3.499,3.281,3.499h35.933c1.446,0,2.478-1.418,2.015-2.787      c-2.106-6.232-8.472-21.426-22.678-30.109L797.797,1291.782z"/>
				
					<linearGradient id="SVGID_00000116917908771930690080000002681767210567478710_" gradientUnits="userSpaceOnUse" x1="796.2354" y1="1287.1378" x2="813.0038" y2="1287.1378">
					<stop offset="0" style="stop-color:#F9B776"/>
					<stop offset="1" style="stop-color:#F47960"/>
				</linearGradient>
				<path style="fill:url(#SVGID_00000116917908771930690080000002681767210567478710_);" d="M796.235,1278.042l2.032,17.041      c0.175,1.47,1.328,2.647,2.799,2.817c1.965,0.226,4.822,0.386,7.598-0.072c2.524-0.416,4.34-2.664,4.34-5.221v-16.453      L796.235,1278.042z"/>
				
					<linearGradient id="SVGID_00000096779844500957279230000010266322020913530034_" gradientUnits="userSpaceOnUse" x1="879.9688" y1="1305.6898" x2="944.8424" y2="1305.6898">
					<stop offset="0" style="stop-color:#2B3582"/>
					<stop offset="1" style="stop-color:#150E42"/>
				</linearGradient>
				<path style="fill:url(#SVGID_00000096779844500957279230000010266322020913530034_);" d="M886.701,1289.903      c0,0-6.878,10.691-6.73,25.364c0.034,3.456,2.928,6.209,6.385,6.209h55.808c2.613,0,3.674-3.358,1.536-4.86      c-10.56-7.416-31.317-21.269-46.329-26.714H886.701z"/>
				
					<linearGradient id="SVGID_00000009555829159254466510000008032558140658975904_" gradientUnits="userSpaceOnUse" x1="880.9541" y1="1279.6919" x2="897.6304" y2="1279.6919">
					<stop offset="0" style="stop-color:#F9B776"/>
					<stop offset="1" style="stop-color:#F47960"/>
				</linearGradient>
				<path style="fill:url(#SVGID_00000009555829159254466510000008032558140658975904_);" d="M880.954,1271.499l4.335,21.047      c0.485,2.354,2.788,3.937,5.133,3.414c1.426-0.318,3.109-0.928,4.906-2.052c1.708-1.068,2.574-3.1,2.225-5.085l-4.484-25.498      L880.954,1271.499z"/>
				
					<linearGradient id="SVGID_00000026841621662419281820000016463828379915252652_" gradientUnits="userSpaceOnUse" x1="785.8162" y1="1131.7693" x2="899.5038" y2="1131.7693">
					<stop offset="0" style="stop-color:#CB236D"/>
					<stop offset="1" style="stop-color:#4C246D"/>
				</linearGradient>
				<path style="fill:url(#SVGID_00000026841621662419281820000016463828379915252652_);" d="M804.198,978.875      c0,0-15.073,13.289-17.91,29.276c-2.837,15.988,8.037,275.844,8.037,275.844s15.072,2.508,22.842-2.2      c0,0,9.215-168.645,16.22-207.615c0,0,36.735,174.694,46.913,206.259c0,0,14.521,1.766,19.203-0.997      c0,0-9.623-226.452-21.714-266.712L804.198,978.875z"/>
				
					<linearGradient id="SVGID_00000101088515307641346960000004878365690586553988_" gradientUnits="userSpaceOnUse" x1="951.157" y1="926.0942" x2="763.453" y2="1107.8397">
					<stop offset="0" style="stop-color:#CB236D"/>
					<stop offset="1" style="stop-color:#4C246D"/>
				</linearGradient>
				<path style="fill:url(#SVGID_00000101088515307641346960000004878365690586553988_);" d="M832.949,1068.664      c-0.71,0-1.359-0.477-1.547-1.196l-6.246-23.958l-13.306-8.536c-0.744-0.477-0.96-1.466-0.483-2.21      c0.477-0.744,1.468-0.962,2.21-0.481l13.833,8.873c0.339,0.217,0.583,0.552,0.684,0.941l6.403,24.562      c0.223,0.856-0.289,1.729-1.145,1.952C833.218,1068.647,833.082,1068.664,832.949,1068.664z"/>
				
					<linearGradient id="SVGID_00000062169524815054710790000001623989939447330989_" gradientUnits="userSpaceOnUse" x1="974.1475" y1="663.208" x2="940.2213" y2="850.7995">
					<stop offset="0" style="stop-color:#53D8FF"/>
					<stop offset="1" style="stop-color:#3840F7"/>
				</linearGradient>
				<path style="fill:url(#SVGID_00000062169524815054710790000001623989939447330989_);" d="M952.942,828.725      c-63.452-5.268-80.036,7.863-80.036,7.863l30.492,48.139c0,0,62.348-1.232,107.022-35.664      c-8.361-9.005-14.168-18.955-17.892-26.704C981.009,827.147,967.743,829.954,952.942,828.725z"/>
				
					<linearGradient id="SVGID_00000133494361030900042300000003890611469935537066_" gradientUnits="userSpaceOnUse" x1="992.5289" y1="791.3922" x2="1054.5059" y2="791.3922">
					<stop offset="0" style="stop-color:#F9B776"/>
					<stop offset="1" style="stop-color:#F47960"/>
				</linearGradient>
				<path style="fill:url(#SVGID_00000133494361030900042300000003890611469935537066_);" d="M1052.307,735.587      c-0.086-2.033-2.841-2.587-3.705-0.744l-8.097,17.277c-1.564,3.338-2.066,7.076-1.437,10.709l2.84,10.056      c0.85,4.904-0.431,9.929-3.54,13.815c-7.439,9.3-23.284,26.286-45.839,35.659c3.724,7.748,9.531,17.699,17.892,26.704      c16.392-12.634,30.408-29.732,38.087-52.887c3.679-1.13,6.138-4.594,5.992-8.44L1052.307,735.587z"/>
				
					<linearGradient id="SVGID_00000149360021216307008670000016830173878758190521_" gradientUnits="userSpaceOnUse" x1="935.508" y1="774.7368" x2="901.5821" y2="1096.0366">
					<stop offset="0" style="stop-color:#53D8FF"/>
					<stop offset="1" style="stop-color:#3840F7"/>
				</linearGradient>
				<path style="fill:url(#SVGID_00000149360021216307008670000016830173878758190521_);" d="M973.828,856.635      c-22.338-24.07-64.885-34.944-89.519-39.411c-10.792-1.957-21.43,4.048-25.254,14.328      c-11.086,29.8-41.236,107.329-47.08,120.654c-4.794,10.932-9.801,21.608-12.982,28.283c-1.9,3.988-0.24,8.759,3.74,10.677      c20.726,9.99,58.019,21.293,73.138,25.702c3.325,0.97,6.637-1.527,6.637-4.991c0-2.938,0.798-5.821,2.31-8.34l57.26-95.42      c35.69,39.572,66.944,43.191,90.954,34.529c-4.037-12.477-6.679-24.977-7.946-37.5      C989.617,899.07,973.828,856.635,973.828,856.635z"/>
				
					<linearGradient id="SVGID_00000009570551290948307700000014250588569895067574_" gradientUnits="userSpaceOnUse" x1="1132.8655" y1="804.9041" x2="998.9503" y2="971.5075">
					<stop offset="0" style="stop-color:#F9B776"/>
					<stop offset="1" style="stop-color:#F47960"/>
				</linearGradient>
				<path style="fill:url(#SVGID_00000009570551290948307700000014250588569895067574_);" d="M1083.714,898.505l-6.401-8.535      c-20.724,14.232-38.046,17.606-52.226,15.176c1.267,12.523,3.909,25.024,7.946,37.5      C1064.663,931.237,1083.714,898.505,1083.714,898.505z"/>
				
					<linearGradient id="SVGID_00000142168586815592088040000010941228976691026314_" gradientUnits="userSpaceOnUse" x1="1158.2549" y1="825.3121" x2="1024.3398" y2="991.9153">
					<stop offset="0" style="stop-color:#F9B776"/>
					<stop offset="1" style="stop-color:#F47960"/>
				</linearGradient>
				<path style="fill:url(#SVGID_00000142168586815592088040000010941228976691026314_);" d="M1079.201,898.66l36.063,1.406      l33.203-18.545c-4.766-2.988-31.718,3.119-31.718,3.119s-28.175-4.261-35.801-4.271c-6.334-0.008-5.429,9.099-4.94,12.186      c0.1,0.63,0.182,1.009,0.182,1.009L1079.201,898.66z"/>
				
					<linearGradient id="SVGID_00000078008074879112668500000008503988412652396696_" gradientUnits="userSpaceOnUse" x1="982.2102" y1="704.2176" x2="852.5127" y2="942.5241">
					<stop offset="0" style="stop-color:#F9B776"/>
					<stop offset="1" style="stop-color:#F47960"/>
				</linearGradient>
				<path style="fill:url(#SVGID_00000078008074879112668500000008503988412652396696_);" d="M918.192,773.019l-19.028,46.432      c0,0,21.863,15.133,39.452,13.692l9.496-41.751L918.192,773.019z"/>
				<g>
					
						<linearGradient id="SVGID_00000067227051905776298370000016718909945559886216_" gradientUnits="userSpaceOnUse" x1="459.783" y1="3655.6497" x2="402.4641" y2="3731.4778" gradientTransform="matrix(0.817 -0.5767 0.5767 0.817 -1542.5209 -1973.3862)">
						<stop offset="0" style="stop-color:#F9B776"/>
						<stop offset="1" style="stop-color:#F47960"/>
					</linearGradient>
					<path style="fill:url(#SVGID_00000067227051905776298370000016718909945559886216_);" d="M950.334,741.365       c0.436,0.617,13.766,48.772,13.766,48.772l-27.657,7.027L917.028,753.4C917.028,753.4,943.038,731.029,950.334,741.365z"/>
					
						<linearGradient id="SVGID_00000045577550222656491300000006066720041017004987_" gradientUnits="userSpaceOnUse" x1="416.0078" y1="3673.9412" x2="484.4762" y2="3673.9412" gradientTransform="matrix(0.817 -0.5767 0.5767 0.817 -1542.5209 -1973.3862)">
						<stop offset="0" style="stop-color:#2B3582"/>
						<stop offset="1" style="stop-color:#150E42"/>
					</linearGradient>
					<path style="fill:url(#SVGID_00000045577550222656491300000006066720041017004987_);" d="M927.442,760.049l8.416,23.838       c0.108,0.306,0.253,0.589,0.439,0.854c1.142,1.623,5.481,6.917,10.627,2.148c4.67-4.328,8.996-8.208,12.991-8.912       c1.794-0.316,3.532,0.778,4.017,2.534c1.21,4.375,3.754,14.286,4.651,23.233c0.182,1.816-1.072,3.457-2.864,3.797       c-5.402,1.026-16.855,2.871-26.417,2.196c-1.295-0.091-2.436-0.869-2.976-2.05c-2.635-5.758-10.708-23.228-13.711-27.748       c-2.818-4.243-9.727-4.124-12.625-3.867c-0.95,0.084-1.884-0.222-2.601-0.851c-2.535-2.222-7.359-7.895-0.573-14.686       c1.42-1.421,1.382-3.714-0.082-5.091c-2.914-2.74-6.031-7.6-1.176-13.628c4.935-6.127,11.451-5.151,15.442-3.695       c1.614,0.589,3.375-0.093,4.252-1.57c0.5-0.841,1.371-1.477,2.882-1.347c2.036,0.175,3.747-1.524,3.711-3.567       c-0.071-3.925,1.335-8.884,8.144-11.003c12.082-3.76,19.616,7.912,20.362,16.621c0.746,8.71-12.585,12.042-20.423,11.454       c-5.96-0.447-10.385,5.461-12.164,8.318C927.2,757.934,927.087,759.044,927.442,760.049z"/>
					
						<linearGradient id="SVGID_00000020359675616100843770000003605189169072595124_" gradientUnits="userSpaceOnUse" x1="375.833" y1="3715.6995" x2="421.8077" y2="3668.5308" gradientTransform="matrix(0.817 -0.5767 0.5767 0.817 -1542.5209 -1973.3862)">
						<stop offset="0" style="stop-color:#F9B776"/>
						<stop offset="1" style="stop-color:#F47960"/>
					</linearGradient>
					<path style="fill:url(#SVGID_00000020359675616100843770000003605189169072595124_);" d="M925.766,788.588       c0,0-1.951-15.12-8.242-15.861c-6.29-0.741-12.412,4.429-6.159,12.915C919.144,796.199,925.766,788.588,925.766,788.588z"/>
				</g>
			</g>
		</g>
	</g>
	<g>
		<g>
			<path style="opacity:0.53;fill:#FFFFFF;" d="M1510.327,1108.707h-165.448c-15.747,0-28.513-12.766-28.513-28.513V914.745     c0-15.747,12.766-28.513,28.513-28.513h165.448c15.747,0,28.513,12.766,28.513,28.513v165.448     C1538.84,1095.941,1526.075,1108.707,1510.327,1108.707z"/>
			<g>
				<g>
					
						<linearGradient id="SVGID_00000172432999979129038160000015800092572323341960_" gradientUnits="userSpaceOnUse" x1="1432.8401" y1="971.3607" x2="1394.1075" y2="1124.8005">
						<stop offset="0" style="stop-color:#53D8FF"/>
						<stop offset="1" style="stop-color:#3840F7"/>
					</linearGradient>
					<path style="fill:url(#SVGID_00000172432999979129038160000015800092572323341960_);" d="M1493.437,1055.783H1357.07       c-5.505,0-9.969-4.463-9.969-9.969v-88.796c0-5.29,4.132-9.659,9.414-9.953l141.629-7.894       c5.93-0.331,10.831,4.565,10.509,10.495l-5.262,96.69C1503.103,1051.643,1498.732,1055.783,1493.437,1055.783z"/>
					<g>
						
							<linearGradient id="SVGID_00000170268740304484980080000005186022889100932500_" gradientUnits="userSpaceOnUse" x1="1478.4248" y1="871.2818" x2="1326.4742" y2="1087.29">
							<stop offset="0" style="stop-color:#53D8FF"/>
							<stop offset="1" style="stop-color:#3840F7"/>
						</linearGradient>
						<path style="fill:url(#SVGID_00000170268740304484980080000005186022889100932500_);" d="M1428.437,1002.203l74.542-62.081        c-1.454-0.694-3.1-1.047-4.836-0.951l-141.629,7.894c-2.435,0.136-4.625,1.139-6.279,2.698l55.788,51.884        C1412.081,1007.28,1422.044,1007.527,1428.437,1002.203z"/>
					</g>
				</g>
				<path style="fill:#FFFFFF;" d="M1418.075,999.126c-3.706,0-7.395-1.326-10.36-3.943l-21.02-18.557      c-0.617-0.545-0.675-1.486-0.131-2.103c0.544-0.618,1.487-0.676,2.103-0.131l21.02,18.557c4.466,3.942,10.962,4.267,15.8,0.79      l10.892-7.829c0.67-0.48,1.599-0.327,2.08,0.341c0.48,0.668,0.328,1.599-0.34,2.079l-10.892,7.829      C1424.464,998.144,1421.263,999.126,1418.075,999.126z"/>
				<path style="fill:#FFFFFF;" d="M1379.861,970.095c-0.351,0-0.702-0.123-0.985-0.373l-2.83-2.498      c-0.617-0.545-0.676-1.486-0.131-2.103c0.544-0.618,1.486-0.675,2.103-0.131l2.83,2.498c0.617,0.545,0.675,1.486,0.131,2.103      C1380.684,969.925,1380.273,970.095,1379.861,970.095z"/>
			</g>
		</g>
		<g>
			<g>
				
					<linearGradient id="SVGID_00000022555548450760892320000007194159378294103978_" gradientUnits="userSpaceOnUse" x1="1603.3065" y1="1020.959" x2="1691.7007" y2="1190.7953" gradientTransform="matrix(0.9998 -0.0189 0.0189 0.9998 -40.2044 7.591)">
					<stop offset="0" style="stop-color:#CB236D"/>
					<stop offset="1" style="stop-color:#4C246D"/>
				</linearGradient>
				<path style="fill:url(#SVGID_00000022555548450760892320000007194159378294103978_);" d="M1744.765,1159.353      c-7.746-28.65-31.68-52.187-58.349-58.135c-4.9-1.093-7.738-6.085-6.588-10.972c0.008-0.034,0.016-0.068,0.024-0.102      c3.865-16.662-6.816-29.935-22.923-33.672c-16.107-3.735-31.54,3.482-35.405,20.143c-2.608,11.244,0.733,23.893,8.128,32.084      c3.047,3.375,3.292,8.414,0.339,11.873c-16.252,19.039-22.864,48.1-15.836,74.094c10.352,38.286,46.352,55.39,82.419,45.638      C1732.642,1230.554,1755.117,1197.64,1744.765,1159.353z"/>
				<path style="fill:#FFFFFF;" d="M1733.549,1195.891l-0.701-0.492c6.457-9.164,7.286-22.392,2.163-34.521      c-4.068-9.634-11.349-18.443-22.912-27.722c-4.308-3.458-8.877-6.741-13.295-9.913c-5.319-3.822-10.818-7.772-15.917-12.067      c-4.585-3.865-9.41-8.66-10.421-14.933c-0.505-3.127-0.034-6.458,0.423-9.679c0.714-5.041,1.389-9.803-1.566-13.449l0.666-0.539      c3.19,3.935,2.457,9.107,1.749,14.108c-0.448,3.157-0.91,6.423-0.427,9.422c0.968,5.997,5.663,10.651,10.128,14.414      c5.072,4.273,10.558,8.215,15.864,12.027c4.427,3.181,9.006,6.468,13.332,9.94c11.679,9.373,19.04,18.289,23.166,28.057      C1741.037,1172.944,1740.174,1186.488,1733.549,1195.891z"/>
				<path style="fill:#FFFFFF;" d="M1716.401,1201.421l-0.805-0.291c4.393-12.15,3.107-27.082-3.53-40.967      c-6.579-13.762-17.333-24.982-25.966-33.22l0.591-0.619c8.687,8.287,19.51,19.583,26.149,33.471      C1719.574,1173.885,1720.873,1189.057,1716.401,1201.421z"/>
			</g>
			
				<linearGradient id="SVGID_00000020380834666607233960000005312734517486938550_" gradientUnits="userSpaceOnUse" x1="1537.7456" y1="1007.0538" x2="1629.0969" y2="1213.3193">
				<stop offset="0" style="stop-color:#F9B776"/>
				<stop offset="1" style="stop-color:#F47960"/>
			</linearGradient>
			<path style="fill:url(#SVGID_00000020380834666607233960000005312734517486938550_);" d="M1543.444,1044.251l-0.297-9.895     l10.343-20.536c1.892-3.757,1.907-8.185,0.04-11.954l-11.716-23.655c0,0-6.766,51.345-8.546,55.613     c-1.78,4.267,4.828,11.935,4.828,11.935L1543.444,1044.251z"/>
			
				<linearGradient id="SVGID_00000081638435168664300340000001859450312125133225_" gradientUnits="userSpaceOnUse" x1="1539.3687" y1="1006.3351" x2="1630.72" y2="1212.6007">
				<stop offset="0" style="stop-color:#F9B776"/>
				<stop offset="1" style="stop-color:#F47960"/>
			</linearGradient>
			<path style="fill:url(#SVGID_00000081638435168664300340000001859450312125133225_);" d="M1543.146,1034.356     c0,0,31.458,85.756,85.059,112.559c0,0-17.84,29.109-27.151,30.874c0,0-57.26-73.286-63.098-133.328L1543.146,1034.356z"/>
			
				<linearGradient id="SVGID_00000132794977713298979930000013020566329647696046_" gradientUnits="userSpaceOnUse" x1="1758.682" y1="1564.6122" x2="1786.5778" y2="1564.6122">
				<stop offset="0" style="stop-color:#53D8FF"/>
				<stop offset="1" style="stop-color:#3840F7"/>
			</linearGradient>
			<path style="fill:url(#SVGID_00000132794977713298979930000013020566329647696046_);" d="M1758.715,1550.206l1.582,13.005     c1.647,6.181,9.604,21.755,19.816,20.741c6.283-0.624,7.04-18.982,6.165-21.735c-1.596-5.02-4.515-12.557-8.724-16.992h-14.427     C1760.46,1545.225,1758.393,1547.558,1758.715,1550.206z"/>
			
				<linearGradient id="SVGID_00000059296666353420878050000006390155321363777458_" gradientUnits="userSpaceOnUse" x1="1641.1555" y1="1666.5577" x2="1681.1813" y2="1198.7573">
				<stop offset="0" style="stop-color:#F9B776"/>
				<stop offset="1" style="stop-color:#F47960"/>
			</linearGradient>
			<path style="fill:url(#SVGID_00000059296666353420878050000006390155321363777458_);" d="M1645.718,1397.856l-2.435,14.324     c0,0,8.154,82.599,9.605,115.638c0.227,5.18-1.113,10.299-3.831,14.714l-14.179,23.026l36.036-21.265l0.718-4.398l-5.899-8.111     l7.727-92.531c0.454-5.436-0.668-10.887-3.231-15.702l-7.454-14.003L1645.718,1397.856z"/>
			
				<linearGradient id="SVGID_00000114775356075928196590000002656989680508547209_" gradientUnits="userSpaceOnUse" x1="1659.9132" y1="1551.7985" x2="1704.9176" y2="1551.7985">
				<stop offset="0" style="stop-color:#53D8FF"/>
				<stop offset="1" style="stop-color:#3840F7"/>
			</linearGradient>
			<path style="fill:url(#SVGID_00000114775356075928196590000002656989680508547209_);" d="M1632.504,1568.894h11.5     c2.153,0,4.183-0.988,5.496-2.694c3.585-4.658,11.013-13.747,14.564-13.984c4.781-0.319,4.17,16.678,4.17,16.678h2.68     l3.395-21.121c0.854-5.314-1.789-10.579-6.561-13.069l0,0c0,0-1.093,8.083-7.019,11.658     c-5.926,3.575-24.116,16.379-24.116,16.379s-2.228-0.318-4.674,0.125C1628.309,1563.52,1628.816,1568.894,1632.504,1568.894z"/>
			
				<linearGradient id="SVGID_00000050641879231834734700000011102838066825795775_" gradientUnits="userSpaceOnUse" x1="1721.6696" y1="1673.5182" x2="1761.7058" y2="1205.595">
				<stop offset="0" style="stop-color:#F9B776"/>
				<stop offset="1" style="stop-color:#F47960"/>
			</linearGradient>
			<path style="fill:url(#SVGID_00000050641879231834734700000011102838066825795775_);" d="M1695.076,1404.659     c0,0,47.772,90.618,55.366,111.308c7.594,20.69,10.254,37.949,10.356,39.584c0.159,2.554,3.336,5.003,12.092,5.003     c4.519,0,6.732-1.811,7.815-3.565c0.925-1.496,0.972-3.368,0.193-4.944c-2.763-5.593-11.533-23.465-14.781-31.571     c-3.878-9.678-12.219-53.538-16.793-68.787c-4.575-15.25-9.745-31.791-29.667-47.028     C1719.657,1404.659,1705.982,1391.265,1695.076,1404.659z"/>
			
				<linearGradient id="SVGID_00000095306728452134352320000008267177932860670637_" gradientUnits="userSpaceOnUse" x1="1571.5409" y1="1301.6422" x2="1450.6776" y2="1470.5406">
				<stop offset="0" style="stop-color:#FDF53F"/>
				<stop offset="1" style="stop-color:#D93C65"/>
			</linearGradient>
			<path style="fill:url(#SVGID_00000095306728452134352320000008267177932860670637_);" d="M1664.898,1256.177     c-6.997-29.648,0.043-51.982,7.435-65.751c5.896-10.982,1.751-24.568-9.308-30.319c-17.284-8.988-34.819-13.192-34.819-13.192     s-34.246,25.037-30.183,44.634c2.381,11.486,24.072,68.798,24.072,68.798S1642.151,1269.839,1664.898,1256.177z"/>
			
				<linearGradient id="SVGID_00000164484776053674859610000016704727512761842319_" gradientUnits="userSpaceOnUse" x1="1773.5463" y1="1195.7075" x2="1558.229" y2="1486.0599">
				<stop offset="0" style="stop-color:#2B3582"/>
				<stop offset="1" style="stop-color:#150E42"/>
			</linearGradient>
			<path style="fill:url(#SVGID_00000164484776053674859610000016704727512761842319_);" d="M1692.219,1282.028     c-5.015-15.108-27.322-25.851-27.322-25.851c-22.747,13.662-42.804,4.17-42.804,4.17s-4.498,17.193-1.393,33.171     c3.104,15.978,22.582,118.663,22.582,118.663c30.69,6.219,77.891-6.256,77.891-6.256     C1701.625,1371.217,1697.234,1297.136,1692.219,1282.028z"/>
			
				<linearGradient id="SVGID_00000057119024832584444680000005939414588609039754_" gradientUnits="userSpaceOnUse" x1="1636.766" y1="1205.4468" x2="1644.2847" y2="1150.4418">
				<stop offset="0" style="stop-color:#F9B776"/>
				<stop offset="1" style="stop-color:#F47960"/>
			</linearGradient>
			<path style="fill:url(#SVGID_00000057119024832584444680000005939414588609039754_);" d="M1650.594,1112.408l10.019,45.002     c0.959,3.964-2.654,3.315-6.662,2.56c-6.563-1.237-15.022-3.786-17.85-8.893c-0.288-0.52-0.432-1.107-0.513-1.696l-4.304-31.206     c-0.342-2.476,0.997-4.879,3.281-5.892l8.306-3.683C1646.069,1107.183,1649.771,1109.008,1650.594,1112.408z"/>
			
				<linearGradient id="SVGID_00000165231250160737164300000006167492059963964581_" gradientUnits="userSpaceOnUse" x1="1597.0227" y1="1076.8345" x2="1589.9537" y2="1250.8373">
				<stop offset="0" style="stop-color:#F9B776"/>
				<stop offset="1" style="stop-color:#F47960"/>
			</linearGradient>
			<path style="fill:url(#SVGID_00000165231250160737164300000006167492059963964581_);" d="M1525.369,1082.685     c0,0,26.369,91.603,132.702,82.993c6.803-0.551,12.779,4.49,13.307,11.295l0.286,3.677c0.766,9.857-7.278,18.167-17.152,17.667     c-35.366-1.789-111.317-15.678-137.35-99.71L1525.369,1082.685z"/>
			
				<linearGradient id="SVGID_00000089575013094462033120000002627819654117980838_" gradientUnits="userSpaceOnUse" x1="1518.0283" y1="1075.3368" x2="1511.443" y2="1237.4358">
				<stop offset="0" style="stop-color:#F9B776"/>
				<stop offset="1" style="stop-color:#F47960"/>
			</linearGradient>
			<path style="fill:url(#SVGID_00000089575013094462033120000002627819654117980838_);" d="M1517.162,1098.607     c0,0-5.067-14.911-6.34-24.231s3.412-30.24,7.439-36.122c4.027-5.882,4.701,8.537,6.513,15.313     c1.813,6.776-1.257,16.446-1.257,16.446l1.851,12.672L1517.162,1098.607z"/>
			<g>
				
					<linearGradient id="SVGID_00000052803082154469667880000002526716001166186377_" gradientUnits="userSpaceOnUse" x1="-6617.7158" y1="2109.6956" x2="-6567.3652" y2="2167.5852" gradientTransform="matrix(0.9653 0.2612 -0.2612 0.9653 8566.498 774.7174)">
					<stop offset="0" style="stop-color:#F9B776"/>
					<stop offset="1" style="stop-color:#F47960"/>
				</linearGradient>
				<path style="fill:url(#SVGID_00000052803082154469667880000002526716001166186377_);" d="M1630.05,1075.282      c0,0-25.333,36.905-9.579,47.188c15.754,10.283,33.788-15.944,33.788-15.944s5.661-20.045-0.78-26.686      C1647.039,1073.197,1630.05,1075.282,1630.05,1075.282z"/>
				
					<linearGradient id="SVGID_00000125595024775213610310000010607497564233340848_" gradientUnits="userSpaceOnUse" x1="1618.9856" y1="1012.7988" x2="1707.3794" y2="1182.6342" gradientTransform="matrix(0.9998 -0.0189 0.0189 0.9998 -40.2044 7.591)">
					<stop offset="0" style="stop-color:#CB236D"/>
					<stop offset="1" style="stop-color:#4C246D"/>
				</linearGradient>
				<path style="fill:url(#SVGID_00000125595024775213610310000010607497564233340848_);" d="M1640.678,1066.328      c0,0-11.021,2.832-12.478,7.871c-1.457,5.039,15.882,9.358,20.72,9.494l4.277,20.14c0,0,11.155-19.233,6.386-30.129      C1654.815,1062.808,1640.678,1066.328,1640.678,1066.328z"/>
				
					<linearGradient id="SVGID_00000099634942275461619030000002751879483688220313_" gradientUnits="userSpaceOnUse" x1="-6605.1357" y1="2098.7537" x2="-6554.7861" y2="2156.6423" gradientTransform="matrix(0.9653 0.2612 -0.2612 0.9653 8566.498 774.7174)">
					<stop offset="0" style="stop-color:#F9B776"/>
					<stop offset="1" style="stop-color:#F47960"/>
				</linearGradient>
				<path style="fill:url(#SVGID_00000099634942275461619030000002751879483688220313_);" d="M1649.164,1103.942      c0,0,9.906-11.92,14.079-4.35c4.173,7.571-8.863,13.56-13.484,9.891L1649.164,1103.942z"/>
			</g>
		</g>
	</g>
</g>
</svg>